/* XPM */
static char *_e98e991b0bf4043b579a5b8ed837a9e0m25hySpLIJLLhun[] = {
/* columns rows colors chars-per-pixel */
"64 64 222 2 ",
"   c None",
".  c #030303",
"X  c #090507",
"o  c #151619",
"O  c #2C2C3D",
"+  c #352C3D",
"@  c #3C2D3E",
"#  c #202A2E",
"$  c #2D212E",
"%  c #462D3E",
"&  c #542F3E",
"*  c #0F5B19",
"=  c #272E46",
"-  c #392F44",
";  c #26314B",
":  c #2B334E",
">  c #2A3346",
",  c #3A3145",
"<  c #33334C",
"1  c #3C354B",
"2  c #353446",
"3  c #2C3552",
"4  c #2D3855",
"5  c #313752",
"6  c #3A3652",
"7  c #333955",
"8  c #3C3B54",
"9  c #3C3D58",
"0  c #353C59",
"q  c #363E7D",
"w  c #462E41",
"e  c #542E41",
"r  c #423245",
"t  c #44354D",
"y  c #4A364D",
"u  c #4A394E",
"i  c #493448",
"p  c #533244",
"a  c #5C3244",
"s  c #55364A",
"d  c #53394E",
"f  c #5B3B4F",
"g  c #59364D",
"h  c #433B54",
"j  c #4C3B51",
"k  c #493751",
"l  c #533D52",
"z  c #5B3D51",
"x  c #633245",
"c  c #6C3446",
"v  c #6D3449",
"b  c #6D394C",
"n  c #63374B",
"m  c #733445",
"M  c #7B3444",
"N  c #733C4C",
"B  c #7C3C4D",
"V  c #74344A",
"C  c #643E52",
"Z  c #6C3D51",
"A  c #733C52",
"S  c #7C3A52",
"D  c #4E4E4E",
"F  c #434546",
"G  c #454156",
"H  c #554356",
"J  c #5D4254",
"K  c #5D495A",
"L  c #555555",
"P  c #57494F",
"I  c #65414E",
"U  c #7A424E",
"Y  c #634254",
"T  c #6C4253",
"R  c #634956",
"E  c #734454",
"W  c #7B4453",
"Q  c #7B4A5A",
"!  c #774858",
"~  c #79535A",
"^  c #7A615C",
"/  c #7F5B60",
"(  c #7A7D7D",
")  c #76777B",
"_  c #AD103B",
"`  c #823546",
"'  c #833B4B",
"]  c #883949",
"[  c #9D3946",
"{  c #953948",
"}  c #873B54",
"|  c #913D56",
" . c #AA3644",
".. c #AB3A45",
"X. c #A63B48",
"o. c #B33A47",
"O. c #BA3A45",
"+. c #B63845",
"@. c #AC3D52",
"#. c #C63645",
"$. c #C43A45",
"%. c #C93947",
"&. c #CB3E48",
"*. c #D73E47",
"=. c #8A454D",
"-. c #9C424E",
";. c #93414E",
":. c #894755",
">. c #944352",
",. c #9C4652",
"<. c #944D55",
"1. c #9D4C55",
"2. c #875558",
"3. c #935156",
"4. c #9B5358",
"5. c #A8444D",
"6. c #B4424C",
"7. c #BA494F",
"8. c #BB434B",
"9. c #A84851",
"0. c #B74B51",
"q. c #A95856",
"w. c #BC5354",
"e. c #B75656",
"r. c #96655E",
"t. c #825A61",
"y. c #936260",
"u. c #AA6962",
"i. c #B27766",
"p. c #AB6875",
"a. c #BF4660",
"s. c #CC454B",
"d. c #C7494D",
"f. c #DA4246",
"g. c #D3424B",
"h. c #D9484B",
"j. c #CB4A51",
"k. c #C84657",
"l. c #D94C57",
"z. c #C35353",
"x. c #C75857",
"c. c #DC5C53",
"v. c #D95654",
"b. c #CA544C",
"n. c #E6474B",
"m. c #F34C4D",
"M. c #F94F4F",
"N. c #FA544E",
"B. c #E65A55",
"V. c #FB5452",
"C. c #FC5A52",
"Z. c #EC4D55",
"A. c #CB6458",
"S. c #D76358",
"D. c #D27155",
"F. c #E46453",
"G. c #EB6559",
"H. c #F66757",
"J. c #FA7257",
"K. c #D04D64",
"L. c #F4576B",
"P. c #FC6671",
"I. c #F56969",
"U. c #7E807F",
"Y. c #FFD01A",
"T. c #A98B6E",
"R. c #B58C6C",
"E. c #CB825B",
"W. c #EF8559",
"Q. c #F9885C",
"!. c #D4976D",
"~. c #C88163",
"^. c #FC8A64",
"/. c #FE8E68",
"(. c #FEA162",
"). c #7D7E82",
"_. c #0B74E0",
"`. c #A748DC",
"'. c #7F8280",
"]. c #0A8DE4",
"[. c #5FA7EA",
"{. c #8D8893",
"}. c #858887",
"|. c #9E9FA3",
" X c #A5A6AA",
".X c #A7A8AC",
"XX c #A9AAAE",
"oX c #A1A2A6",
"OX c #ACADB1",
"+X c #B1B2B6",
"@X c #B4B5B9",
"#X c #B9BABE",
"$X c #B7B8BC",
"%X c #AFB0B4",
"&X c #9FA0A4",
"*X c #E6CC86",
"=X c #F5D589",
"-X c #EED38A",
";X c #BCBCC4",
":X c #B6BBCA",
">X c #B9BCCB",
",X c #C4BBC5",
"<X c #D4BBC4",
"1X c #BFC0C4",
"2X c #BFC3D0",
"3X c #C1C2C6",
"4X c #C4C5C9",
"5X c #C9CACE",
"6X c #C9C6CA",
"7X c #CDCED2",
"8X c #CFD0D4",
"9X c #D2D2D4",
"0X c #D5D6D9",
"qX c #DADBDD",
"wX c #D7D8DA",
"eX c #DEDFE1",
"rX c #DFE0E2",
"tX c #E2E3E5",
"yX c #E5E6E8",
"uX c #FEFFFF",
"iX c #F1F2F8",
"pX c #F3ECF1",
/* pixels */
"                                                                                                                                ",
"                                                                                                                                ",
"                                                                                                                                ",
"                                                                                                                                ",
"                                                                                                                                ",
"                                                                                                                                ",
"                                                                                                                                ",
"                                                                                                                                ",
"                                                                                                                                ",
"    . . . . . . . . . . . . . . . . . . . . . . . . . . . . . . . . . . . . . . . . . . . . . . . . . . . . . . . . . . . .     ",
"  X . . . . . . . . . . . . . . . . . . . . . . . . . . . . . . . . . X . . . . . . . . . . . X . . . . . . . . . . . . . . .   ",
"  . . . 4X{.>X>X>X>X>X>X>X2X>X>X:X:X:X:X:X:X:X:X:X:X:X:X:X>X>X>X>X:X>X:X;X:X>X>X>X,X>X;X;X,X,X6X<X,X{.{.,X{.;X;X,X{.,X4X. . .   ",
"  . . . 0 7 5 5 5 5 5 5 5 5 5 4 3 3 3 = = ; ; ; ; ; ; ; : : : : 1 1 d W t t k t , < i J O > 2 @ =.:.| ;.= @ , , r - , , . . .   ",
"  . . . h 0 6 7 7 7 7 7 7 7 4 4 3 3 3 3 ; ; ; ; ; ; ; : : : Y Y z z Q ! E T C k : k u t ! ! ~ 2 < >.,.,.1.,.q.9.e., , @ . . .   ",
"  . . . h 9 0 7 7 7 7 7 7 3 4 3 ; 5 3 3 3 ; 3 ; 3 ; ; 5 1 Z Y Y z l ! T T Y z z :.y y u ~ ^ y.r.r.; 4.2.2.N b v : M , - . . .   ",
"  . . . 9 9 h 7 7 7 7 5 4 4 4 5 : 3 3 3 3 ; ; ; ; : : k d C C f g d E T C C H H Q Q t u 2.2.r.r.~.E.U N N b N 2 < m v 2 . . X   ",
"  . . . 9 9 9 0 7 7 7 7 7 7 7 : 5 : 5 3 : ; 4 7 : : < l d 6XK 6X,Xl Z C H H l l Q Q Q Q j y.r.C R R Y N N = > 2 M v a a . . .   ",
"  . . . 9 0 0 9 7 0 0 0 0 7 7 8 8 : : : 7 : : 4 1 8 8 t uXJ H K uXk H z j H j j Q Q ! ! / J.z H Y J J b = 2 2 , v a a p . . .   ",
"  . . . 7 7 6 0 7 7 0 0 0 4 4 5 7 4 7 7 7 4 7 7 4 6 6 uXk j l uXuXt.y.y.u.H H H ~ / T.T.*X*XG.G.S.S.A.E = > > 1 x x x x X . .   ",
"  . . . 7 7 7 7 7 4 7 7 7 7 7 4 7 7 5 : : : 7 : 5 6 uXuXuXuXl uXQ t.u.k j k j ~ T.T.T.*X*X*X-XS.K.A.W W t t r > - = c x . . .   ",
"  . . . k 0 0 9 7 7 7 7 9 9 h 7 : 7 7 4 4 5 : 7 5 7 6 k j uX~ T uXuXl u j ~ ~ ~ / R.*X*X-X=X=X=XQ ! Y H t r r r 2 , , r . . .   ",
"  . . . h h h 4 7 7 4 7 8 8 7 k 4 4 : : 5 5 5 5 5 7 6 z t.T Z Z T A Z k ~ / Z ! Q u.u.p.!.!.!.!.S.l.x.e.B { ;.>.M ` & a . . .   ",
"  . . . h h h 6 9 7 7 7 h 7 u k k 3 < 4 3 < 6 6 6 6 6 6 2 < 1 2 uXuXuXuXW W :.3.3.u.u.i.p.i.R.i.B.B.l.n b e.{ >.M ` ` ` . . .   ",
"  . . . h h j k 8 h 6 6 8 4 8 8 G 9 4 5 7 5 : 2 < < < 6 1 d k u t s s s s d 4.4.i.i.i.i.C A Z e.e.v.d./.B U =.=.M >.;.} . . .   ",
"  . . . l l J d g f G k k E 8 9 h G I 4 5 5 < 5 < < 5 6 6 y i r uXuXuXuXuXuXuXuXA Z A Z Z C e.x.x.j./.Q.U =.=.=.z.| { B . . .   ",
"  . . . H J g g E T E 8 W A E k G 8 J f 4 < < < 5 6 8 6 6 6 t r Z A Z S S S } } x c Z Z C 0.x.x.A.j.Q.Q.(.=.I G.F.S.v v . . .   ",
"  . . . ~ p T E R T ! 4.E A T Z 9 G f d d 2 < < 5 6 8 6 6 6 6 t A A Z A } } } @.x v v n a.x.A.A.S.S.Q.(.(.D.J.H.H.G.J.m . . .   ",
"  . . . G k 3.<.3.3.3.5.6.T T T T G G u u f 6 7 1 6 k u k d l O.k.&.Z.A S } | @.v v v n C Z E E ! 4.A.q.D.h.J.H.G.B.J.H.. . .   ",
"  . . . H k 4.<.3.3.2.5.,.T T E T I D u k 8 T Y H t k j j d z o.O.@.l.K.l.l.K.K.L.L.L.L.2 :.<.<.4.q.q.W.v.c.F.F.G.v.H.H.. . .   ",
"  . . . k j d 3.3.3.5.,.-.,.E E T ! E ! ~ R Y f l t t d s z *.@.7.7.$.l.L.L.I.a.l.a.a.v v < t < q.q.a i & & J.J.B.Q.C.B.. . .   ",
"  . . . d l g g 2.2.9.-.,.,.,.E ! ! ^ 2.Q Y J H l j k y g n o.8.Z.V.V.V.k.k.K.k.a.c V v v v t i d a a n.g.c M { { Q.Q.J.. . .   ",
"  . . . j g z C 2.2.-.,.,.,.<.E ! ^ ^ ~ 2., J u j h t u y = C.C.V.V.M.M.k.@.@.k.V V v v x v y y M s a f.f.s.;.X...F.F.G.. . .   ",
"  . . . n b N =.T ,.,.,.,.>.>.<.^ ^ t.K R 1 t t k k i i e p #.%.#.%.$.%.W.] M ' [ V v v x x y y V c e *.g.s.s.6.c.b.b.w.. . .   ",
"  . . . W W B } -.>.>.>.B b.z.z.E 1 h R R t t t : - - i p a #.%.#.%.%.W.W.7.m V { { } x x x y e c V k *.s.z.x.^.n.h.h.s.. . .   ",
"  . . . A W W X.j.b.j.j.z.z.z.z.J I I 1 R t > < : , , , a x &.%.%.#.W.W.Q.6.p v [ ` ` ` ` x x M V V  .M 0.A.Q.^.Q.g.d.8.. . .   ",
"  . . . U W B 9.7.v.z.z.z.w.w.w.b.Y z k u : < < , , , , , c %.%._ W.^.W.^.6.X.x ` ` ` M M V V  ._  .+.n.[ X.n.m.m.Q.- @ . . .   ",
"  . . . B W ' ,.z.7.6.v.c.w.w.w.e.J y 5.| r i i [ X. .; @ , *.W.W.Q.Q.Q.Q.6.# Z.% % % e e e  . .#.+.O.n.m.f.n.m.N.m O O . . .   ",
"  . . . B ' :.5.9.d.k.z.c.B.c.e.A.t -.;.>.{ p , O. . . .+.+.O.h.n.n.n.m.M.m.n.n.` % % e e  . . . .%.O.m. .%.o.m.m M O + . . .   ",
"  . . . s =.>.5.9.z.j.j.j.j.F.S.8.-.{ =.} ' s O.%.&...o.....#.#.C.m.M.M.C.C.Z.h.{ & e e  . . . . .f.O.M [ M +.% & & r O . . .   ",
"  . . . ' ] g 5.9.6.j.j.j.j.h.b.A.7.7.7.7.7.v O.&.*.o... .#.f.f.C.N.V.V.H.M.m.g.[ & a  . .{ [ X.a a p a % + % % & % O O . . .   ",
"  . . . ' ` ` 9.5.5.q.D.E.E.E.E.c.7.0.7.7.z.F.F.F.g.h.b.f.f.f.n.N.N.N.O.V.m.f.*.n.#. .[ [ [ [ & a & & O @ + + @ + x O > . . .   ",
"  . . . ` ] ] 9.5.q.5.D.D.D.i.D.b.5.6.7.D.c.c.d.d. .X... . .f.f.m.+.+.+.f.n.f.*.@ % & { [ { % & & m m + @ @ + @ @ + r & . . .   ",
"  . . . M ` ] 9.q.0.0.e.e./.iXF /.[.pXI..XD I.uXI.P.* # I.iX].I.`.uXv._.].q Y.$ p.uXo p.r uXp.uXX p.6X% , % , @ + + % , . X .   ",
"  . . . . . . . . . . . . . . . . . . . . . . . . . . . . . . . . . . . . . . . . . . . . . . . X X . . . X . X X . . . . . .   ",
"  . . . . . . . . . . . . . . . . . . . . . . . . . . . . . . . . . . . . . . . . . . . . . . . . . . . . . . . . . . . . . .   ",
"  . . . . . . . . . . . . . . . . . . . . . . . . . . . . . . . . . . . . . . . . . . . . . . . . . . X . . . . . . . . . . .   ",
"   X.X.X X.X.X.X X XoX XXX.XXXXXXX%XXX%X%X$X%X+X@X@X$X#X$X#X1X1X1X3X3X4X7X5X7X5X7X7X7X9X9X0X9X0XqX0XqXeXqXqXrXqXyXqXrXrXrXrXrX  ",
"  .X.X.X.XoX.X.X X.X.X X.X.X.XXXXXXXXXXX%X+X+X+X+X$X$X#X#X;X1X1X. 1X3X4X5X4X5X7X7X7X9X8X8XwXwX0X0XqX0XqXqXqXrXrXrXrXrXrXyXtXtX  ",
"   X XoX X X X.XXX X X X.X X.XOXXXOXXXOX+X+X@X%X@X@X#X#X1X;X#X. . o 4X4X4X7X5X7X7X7X8X9X0X0X9X0X0XqXqXqXqXqXeXqXrXrXtXtXrXtXtX  ",
"   X X X X XoX X X X XXX.X.X.XXXOXOX+XOX%X+X@X@X@X$X;X#X;X#X3Xo . 4X4X4X4X4X4X7X7X7X8X9X8X0X9XwXwXwXqXqXeXqXqXtXqXrXtXrXtXrXtX  ",
"    XX.X X X X X XXX XOX X.X.XXXXXXXXX+X%X@X+X+X+X@X#X#X$X;X1X3X1X4X4X4X5X5X4X7X7X7X0X0X8X9XqX0XwXqXqXqXrXwXqXrXrXrXtXrXtXtX    ",
"                                                    ) ( ) ) '.) ).) ( ) ) )                                                     ",
"                                                    oX&XoX&X|.&XoXoX&X&X|.oX                                                    ",
"                                                    ;X#X$X#X#X#X;X$X#X#X#X;X                                                    ",
"                                                    8X7X8X7X8X8X7X8X7X8X7X7X                                                    ",
"                                                    yXtXtXyXtXtXtXyXtXtXyXyX                                                    ",
"                                                    5X5X9X9X9X9X9X9X9X9X9X9X                                                    ",
"                                                   XU.( ( U.( ( ( U.U.( U.U.}.                                                  ",
"                                              L L D D D D D D D D D D D D D D D L                                               ",
"                                                                                                                                ",
"                                                                                                                                ",
"                                                                                                                                ",
"                                                                                                                                ",
"                                                                                                                                "
};
