/* XPM */
static char *_63a850e9c644ee088da20ab2dbfa2eb0bvi9Ug1uVQBL34t[] = {
/* columns rows colors chars-per-pixel */
"64 64 223 2 ",
"   c black",
".  c #03060E",
"X  c #070A0E",
"o  c #090C0D",
"O  c #1B0E08",
"+  c #0F1008",
"@  c #040710",
"#  c #070A14",
"$  c #0A0E14",
"%  c #0C0F18",
"&  c #0D1113",
"*  c #0E111B",
"=  c #061B19",
"-  c #101416",
";  c #12151B",
":  c #15191D",
">  c #181818",
",  c #181C1F",
"<  c #0B1222",
"1  c #0B1820",
"2  c #131621",
"3  c #161923",
"4  c #191C24",
"5  c #171A29",
"6  c #1B1E29",
"7  c #211F2A",
"8  c #201D30",
"9  c #1D2125",
"0  c #1D2029",
"q  c #1E2432",
"w  c #212327",
"e  c #272926",
"r  c #22242C",
"t  c #26292D",
"y  c #292B2E",
"u  c #2B3127",
"i  c #242632",
"p  c #292732",
"a  c #262933",
"s  c #2A2C34",
"d  c #29283A",
"f  c #2C2D3A",
"g  c #322F36",
"h  c #312D3C",
"j  c #2E313C",
"k  c #333236",
"l  c #33333C",
"z  c #393739",
"x  c #39363D",
"c  c #3B393D",
"v  c #423D37",
"b  c #413C3E",
"n  c #49413D",
"m  c #2B2D41",
"M  c #2D3446",
"N  c #343542",
"B  c #3A3642",
"V  c #363944",
"C  c #3C3B43",
"Z  c #39374C",
"A  c #3C3C49",
"S  c #373954",
"D  c #423D44",
"F  c #493F45",
"G  c #413D4B",
"H  c #3F4044",
"J  c #3F414F",
"K  c #3F4258",
"L  c #434145",
"P  c #4A4444",
"I  c #45434C",
"U  c #4A454B",
"Y  c #45484D",
"T  c #4D4A4D",
"R  c #514745",
"E  c #524947",
"W  c #51464D",
"Q  c #544C4C",
"!  c #594F4C",
"~  c #56534E",
"^  c #5A504E",
"/  c #454452",
"(  c #4B4653",
")  c #4C4A53",
"_  c #44455A",
"`  c #494858",
"'  c #4C4C5B",
"]  c #524752",
"[  c #534C53",
"{  c #5A4D54",
"}  c #534D5B",
"|  c #5A4D59",
" . c #4D5057",
".. c #4E515D",
"X. c #555255",
"o. c #5B5254",
"O. c #5D5856",
"+. c #54525C",
"@. c #5B545B",
"#. c #5E595B",
"$. c #624F51",
"%. c #625556",
"&. c #6A5652",
"*. c #615A57",
"=. c #61555C",
"-. c #635B5C",
";. c #6A5C5C",
":. c #755F5C",
">. c #6B605E",
",. c #78675D",
"<. c #4D4E60",
"1. c #544D65",
"2. c #555362",
"3. c #5B5463",
"4. c #555C66",
"5. c #5C5A62",
"6. c #525569",
"7. c #5C5569",
"8. c #5C5B6E",
"9. c #515473",
"0. c #624F65",
"q. c #635662",
"w. c #645C63",
"e. c #6A5C63",
"r. c #635C6C",
"t. c #6B5E6C",
"y. c #735D68",
"u. c #635F78",
"i. c #686366",
"p. c #6C6264",
"a. c #67626A",
"s. c #6C636A",
"d. c #746565",
"f. c #766967",
"g. c #72646C",
"h. c #7B666B",
"j. c #746B6C",
"k. c #7A6A6B",
"l. c #696777",
"z. c #6D6474",
"x. c #6B647D",
"c. c #736472",
"v. c #736974",
"b. c #776877",
"n. c #7B6B73",
"m. c #726E7B",
"M. c #7C7274",
"N. c #777278",
"B. c #78727B",
"V. c #816A62",
"C. c #826D6B",
"Z. c #83716B",
"A. c #8C7A6E",
"S. c #836E72",
"D. c #836F7A",
"F. c #847374",
"G. c #897676",
"H. c #83747A",
"J. c #8A757B",
"K. c #857B7E",
"L. c #8B7B7C",
"P. c #987E72",
"I. c #937C7C",
"U. c #8E817B",
"Y. c #9C8274",
"T. c #94827D",
"R. c #9B857D",
"E. c #A3887D",
"W. c #736C82",
"Q. c #7B6D82",
"!. c #7B7384",
"~. c #7C7A8C",
"^. c #7E7F95",
"/. c #847B84",
"(. c #8B7B82",
"). c #8A7D8D",
"_. c #927D82",
"`. c #867B93",
"'. c #89838B",
"]. c #928285",
"[. c #9A8585",
"{. c #91838B",
"}. c #9B8589",
"|. c #9E8A8C",
" X c #888795",
".X c #998A98",
"XX c #98929C",
"oX c #A68E84",
"OX c #A28B8C",
"+X c #AC9385",
"@X c #AB948B",
"#X c #B4998B",
"$X c #B9998A",
"%X c #A78E93",
"&X c #A59492",
"*X c #AB9490",
"=X c #A69897",
"-X c #A49399",
";X c #B69A95",
":X c #B8A097",
">X c #9E99A7",
",X c #9794AE",
"<X c #A998A4",
"1X c #B19CA3",
"2X c #AEA8B2",
"3X c #B0A1B4",
"4X c #C8A48E",
"5X c #C7A898",
"6X c #CAACA2",
"7X c #CFB4A6",
"8X c #D6BBA4",
"9X c #DBB8A5",
"0X c #C3ACB3",
"qX c #EEC1AC",
"wX c #E8CAB4",
"eX c #F5D1BA",
"rX c #F7E8BF",
"tX c #CBBFCB",
"yX c #F6E7C8",
"uX c #FAEACA",
"iX c #FAF7CE",
"pX c #DBD2E5",
"aX c #FFFCED",
/* pixels */
"X o - & $ % $ & & - & ; - * & $ $ $ X & $ $ & $ $ X $ X % $ % # % % < * % % % % # % * % % * # $ $ & & & $ $ O & & $ & & X $ $ 4 ",
"$ $ & $ - - % $ & : 6 : * & > $ $ % $ $ & $ o $ $ X - $ % % % % < % % % 2 # % * * < * * * * * 8 * d h * $ $ $ * * $ < $ & $ $ $ ",
"% & $ $ - $ $ = : 5 - : ; * % $ $ & w $ o $ $ $ X $ % % < % % # < * % % * < * % % % * * 2 % < * * % * - * * % * $ * * 5 < $ & & ",
"% $ X & & % - ; * % ; & ; & $ - & $ $ - % $ X & - % % % % - * < * * 2 . 2 # * p % < 2 ; * 2 % * * % $ * % % * * $ # % * 2 % % o ",
"& & $ $ $ $ : - 3 ; - & $ & & # * $ X $ & % X * % * $ ; ; % % 2 % * 2 2 2 * 2 5 % * 5 5 2 2 % i * * % % % % * # * % 2 @ * % % $ ",
"% * - $ $ - & * u > % & $ & $ $ & 2 $ $ * - % & % ; % % ; * % 2 * 2 3 2 2 2 2 5 ; 5 2 ; 2 * * * % * * % * * # # # $ % % % * < < ",
"$ $ $ - l $ > < - 2 & % & $ $ : 3 5.o $ & % * ; & ; * ; 3 3 5 5 5 5 5 7 3 2 5 7 3 5 0 ; 5 5 * ; * : * 2 * * % * % % * % - % * $ ",
"$ - - $ 4 & - : % % % % & % & * ; - - % & - - * % ; 2 2 7 6 f 7 7 5 3 7 d 7 5 5 4 5 r 6 5 ; 2 5 * ; * 2 2 2 2 * g % $ % % * ; $ ",
"& * C * & : & : % ; * $ & & & $ = $ & - & $ ; 2 4 5 6 0 q s i i 6 6 8 r 6 6 0 i 0 6 5 5 5 4 5 3 2 3 3 2 2 5 3 2 * % * $ % * $ $ ",
"* - - - : 2 * : & - & & & & & & & & * - - ; 4 0 a q a f r s r i p 7 i f 0 3 0 r i 0 6 9 0 0 6 d 5 3 6 5 2 2 % * % % * 2 % * O $ ",
"& & ; $ * - * , & > % o $ & & * * * 0 & ; 6 6 q d N j f s a p 0 0 0 6 0 0 0 0 0 0 0 9 9 0 0 6 r 2 5 5 3 < 5 5 ; * * * * ; % % % ",
"% - ; - ; & * & ; % $ - & & & - & 0 0 > 9 f ^.V N l s f 0 0 0 0 0 0 6 9 0 0 0 0 0 0 0 0 3 4 5 3 ; ; 5 e 2 2 3 ; * ; ; # % * % # ",
"% & - - & - - - $ & & $ & - - & & 0 9 4 N K N J i l 4 0 0 0 0 % e r 0 0 0 0 0 % % 0 0 0 0 2 0 * ; 2 5 4 : ; ; 2 2 * 5 * $ * % % ",
"- - - ; - & & & & & & & & * * & - : 0 s A <.B s B 6 0 0 0 & % % % % 0 0 0 % % % % % $ * $ * 4 : ; ; $ > * 5 2 2 0 ; - * % $ $ # ",
"- ; 5 > o & * & & * & & & : + - : 9 k M <...>X0 0 0 0 % k H D 0 6 0 0 0 0 0 0 0 s t * * * % % 2 3 o ; 2 ; 6 3 3 2 ; ; 5 * $ * $ ",
"- ; - - & * & * & & & : & > ; - 9 f j ..J l 9 0 0 V x L L Y w.F q.[ B.c.0 0 6 0 0 B s r s % % % % 6 - 2 _ 2 ; 3 ; 5 2 * 3 * $ $ ",
"- - - $ - - * & & * - % % & > 9 d V 4.' k 0 0 & L I a.Q Q Q T X.~ X.X.R n E r. X....8.l a w t * % 4 & % & 5 * 3 : 5 3 & * $ * $ ",
"; - - - - & $ % $ % - * 0 0 : 9 B B u.` 0 0 C Z U #.~ -.{ { O.M.'.'.H.s.>.z i.-.i.m.4.6.l p 0 0 % 6 0 % % 3 : 2 - 3 5 ; ; * * & ",
"; , - & & & * & % % : 0 0 0 9 V A 8.2.k 0 ( ' l.o.Q E -.M.H.k.].T.}.L.].K.L.O.v Q 5.a.5.( x 0 0 w * 0 0 $ * ; 5 % ; ; 2 & : : & ",
"4 3 ; - o $ & * % $ * 0 0 4 w C ' +.m.0 0 ( [ Y ^ -.j.M.-XC.R.oX8XwX8XY.=X[.F.m.~ #.@.w.U 2.C 9 0 r % % 0 6 % % 2 3 2 ; ; - * * ",
"3 : : : * & & * % % % 0 0 0 y C r. XG / L [ [ o.p.j.s..X,.[.oX7X$X7X8X9X5X;XI._.N.-.#.X.X.I ' C 0 r s $ * 0 $ ; 2 ; ; ; ; & & * ",
"3 3 - * $ * & % % % % 0 0 w k B / ( / q.@.#.-.~ n.-.XXC.0XA.A.G.*.%.k.L.%X[.OX(.j.M.T O.o.[ ) J 0 0 a % % % % % 5 4 3 5 5 - i - ",
"0 ; ; > * * & * & 0 & 0 0 y x ) ] A c T q.! @.O.-.s.e.K.p.N.{.a.-.@.c.U | J._.(.n.|.i.E O.i.O.L } 0 0 * $ % % % % 5 2 * 2 ; ; * ",
"0 - ; 9 & % & % * 0 0 0 , y L c D U Q ] ] Q -.#.s.o.q.X.c P  .l s I h G ' z.{ (.&.k.M.*.P Q  .N.k N 0 p * % % 0 % r 6 r 3 6 2 ; ",
"0 4 4 : > & * % : 0 0 0 e W t c B I s.3.@.;.=.w.X.P U I U D l J s s 0 f A l } /.e.y.=.p.Q E U a.T c 0 0 % % % 0 0 r 5 4 3 5 * ; ",
"3 a 3 : : * * $ $ 0 0 0 w g ( D D #.#.3.@.%.p.w.L k D p C 0 0 s . & : - 0 w g x.g.q.c.k.;.F Q U @.L z 6 l 0 % % C 5 4 6 : 4 3 * ",
"- : 4 4 : : * $ % 0 0 e e B W.x D x.] 0.{ Q O.[ c C I V 4 3               r w l t.| | e.-.o.P q.l.5.I 6 l 6 9 % 4 t 3 ; 2 3 4 3 ",
"* > 4 , : , * $ * 0 0 3 r N ` g ] t.t.z.j.p.P T n s.B w -                   ; r | q.=.e.%.[ E Q Q 4.) x C w 6 0 4 6 5 3 5 ; 3 ; ",
": : ..4 : 9 , 9 $ % 0 w s I 1.D [ | 0.Q.e.-.P T ) I s a 3                   9 y B 0.q.@.^ -.E D E @...V V C 6 0 4 6 6 5 4 $ 2 ; ",
"* - 6 3 : > 9 r % % 0 w p l F F 7.{ e.).e.p.T %.O.I s j                     w t F [ ] | o.#.U Q U Q c L k C 0 0 6 5 4 3 ; 5 4 4 ",
": : 4 K 6 $ 4 4 % % 0 0 s h x.{ 3.| t.t.q.%.! U X.C 0 :                     : y x ) @.=.-.Q n U D U '.I I B 6 9 7 7 6 4 3 4 2 0 ",
"& ; J K & r , 3 % % 0 0 y I x.G [ =.=.{ e.! W P w.5.j 3                     ; G G w.=.=.p.@.U ) L U ) ) 2Xx h 6 , 7 0 ; 4 5 a 6 ",
"- : 6 i 9.7 9 : % * 6 0 p G 7.z.v.e.0.t.n.>.o.o.#.I a w                     l J 3.+.=.;.p.-.U ) b L [ U A N s i 0 w 6.m 6 5 3 6 ",
"* * - i x.M : , % $ 0 0 N ( ` 3.!.z.q.$.n.h.o.P X.H k s :                   !.V c @.Q o.#.@.) D c c U Y C x i i 0 6 6.0 d $ 6 3 ",
"* & ; > 6 Z 4 4 % $ 0 0 6 s ( 7.B.t.e.q.n.d.j.E X.@.) s 0                 I B J @.+.O.p.-.Q D C z c C U C A f a 0 0 0 0 0 & 5 3 ",
"& - = : r i : 4 3 * * $ 0 B ( 2.0.S.e.0.S.h.J.-.Q X.5.~.t t           h l k J m.Q #.e.-.g.^ U b c c c L c C s j 0 0 6 ~ & & 4 * ",
"- & = - , 4 9 : : % % 9 0 B A 0.`.b.c.;.y.S.:.(.5.#.O.7.4.f 0 9 w w w t r c ] O.O.-.j.p.o.T ] L c c D l C l s s 0 4 3 3 & & 4 - ",
"& & - > , : 0 4 4 9 % 0 6 w C 3.q.3Xy.1Xt.C.h.c.K.-.o.5.a.` / j s p g l D Y Q ! %.p.p.g.w.#.o.C n z C C / k p r r 4 3 r $ : 5 3 ",
"- & - > : 4 , w , , % 0 0 6 0 G r.q.).g.q.e.J.H./.M.K.n 5.X.i.z.+.+.5.@.Q o.[ ;.n.;.l.q.@.i.[ D ) L D ) J l r 9 s 5 4 0 & 6 5 : ",
"& - - = > , 9 4 4 4 4 % 0 9 0 A 3.7.t.(.S.h.h.}.|.H.U.M.f.^ U X.*.-.o.F o.-.M.j.j.'.k.F.e.[  X[ L L W./ V l p 9 0 4 0 3 $ q 5 ; ",
"- & * - : : e 0 r 4 4 % 0 0 0 6 ( !.t.z..XJ.h.S.OXOXI.G.L.L.n.K.j.j.j.'.{.n.>.F.F.&.U.L.w.c.2.) ) A } / B s r r 6 : 4 5 & 3 M # ",
"& & & + - : 3 9 f 4 , , % 0 0 0 / ` 7.r.c.k.[.h.;X;X%XOX*X=XL.}.U.>.f.k.T.L.G.Z.*X|.-XM.o.F b U +.2.@./ y W z 4 & 0 : & & S & & ",
"& & - & > - 4 s a s 0 3 % 0 6 0 6 [ z.2.q.b.$.1XC.OX:X6X5XE.Y._.OXT.T.R.:XT.P.+X:.L.G.M.@.U c I U 3.U V C s w 0 & : > & 2 4 & 0 ",
"& & - & & = : , a a L w w * 9 0 6 6 7.#.7.{ c.c.%XS.;X4XqXyXiXuXrXeXeX5X5X#X@X@XU.G.tXq.P b c L T Y L B N f k 4 & & ; & & : & 6 ",
"& - & - & - - 9 0 l N l s w % 0 0 0 C ] `.W.3.y.].-X_.%X@X4XyXaXaXuXeXwX6X#XY.Z.Z.F.H.=.R b L I #.C C C j s r 4 & , o & 4 & & 0 ",
"& & & - - & & 4 4 s S 0Xd s l 0 0 6 7 I W.c.} =.t.D.<XJ.I.I.oX#X#X$X+XY.@XV.U.k.V.pX>X[ D L T U ) } x x s a r $ & : & & * & 5 6 ",
"- - & & - - * > : 0 m N 6.A f V l A 6 0 G [ ] F ] | =.c.j.G.L.&XR.C.k.,.f.M.k.F.;..X@.Y [ D U ) ' I x l s 0 9 & , : & & ; & 4 i ",
"y & & - - & - * : 3 6 f N h A l f N N r 6 6 } 7.U ( F W { %.%.;.! ~ ! >.&.f.M.L./.v.2.I T D B s.) B j s a r & & 3 & $ & & & 6 5 ",
"* - = - - & * - > 9 4 e t V j t ' j V / W.6 0 8.XX@.1.<X[ @.{ { =.B.o.e.M.F.;.N.@.U C L  .) Y Y C 1.h j a & & : 4 & : & & 2 3 5 ",
"- - o & & - - - : , , 0 i 0 t a s s l k x / ( G ( 1.2.r.t.| !.P $.;.s.j.%.s.r.X.U D c H ' I L J N C s k & & 9 3 $ & * & & - 6 0 ",
"& - - - & & & & & O > 3 0 s N j Z a l A f h ' A A ) ( } t.m.a.U { e.a.#.-.I n H [ I z ` `.Y / I <.f s i & i 0 l & & 3 & & : 5 q ",
"- = - - - > - - = - * : s q j j S j N V h G p z C C G A G ] | [ P @.I ) L c c Y c C C 2.' / A w N _ s & & 0 i & & 4 9 & ; : 6.; ",
"; y - * & * - & * - > : 9 4 0 s j A Z 0 0 N s a G N ( A C ( ) } 8.) ) C c k k c C z ( x.J H V l N m N $ $ & & & & & & & 9 q 3 3 ",
"- - * - - & & * & & - % : * : 0 s 0 $ Z 0 0 0 0 N l B C 1.( ' 8.!.A / 0 0 0 C l C J I ..A V ' j M V & & & 6 + & o o & & q & $ 3 ",
"- - ; - & & - & - & = $ $ * * 9 9 0 j ,X0 _ _ 0 6 6 6 N Z B h / 0 0 0 0 s L k J k J 2.J N j Y j a o & 0 r & & & & & $ & s $ & ; ",
"- - - & & & = & C % % % * $ * $ * * t i 0 6 0 V A Z 0 0 6 9 0 0 6 0 & * U V j V a 2._ N j l j j i & f r $ & & o + & & a $ $ 3 5 ",
"- & : - : & & : : - % % > % % % $ % % % % % 0 0 0 0 0 6 0 0 0 f * $ $ N r 7 i i a / K V l s i a a s 9 o & o o & & o & & & 4 1 3 ",
"* & & - & = & ; * * = & % % % % % * % : 4 % $ % % 0 0 9 i % % % % % 7 7 7 i i 7 0 ..j `  Xa a 0 & o & & & & & + & & & & & : ; 3 ",
"> - & - & & & & & - & : - % % % : : * $ % % % % % % % % % % $ * % 7 7 7 i p 7 7 j N s s Z & & o & & o & & o & & o & + & $ 3 2 ; ",
"= & & - & & & o - - & & & - % % % & $ * % % % % % % % % % % * $ 7 7 & & & $ r i s a 0 & & $ & & o & o & & 9 o & = & & ; & - * * ",
"& & + & & & & + & & & & $ & & o & & & $ - : & : : o 9 * $ % % & & & & & & s $ $ : & & & & + q & = & + & 4 $ $ & & & & & & 4 * % ",
"& & o & o & & & & & & & & & - & & & & & & & & : * & & & 3 e & $ o & & r $ : ; : : & & o & & & o & & & & + & & & : & & 2 ; 3 & o ",
"$ + & & & & & & & & & o + & + & o & & & & & & o & & & & & & & & & f & ; : ; 3 & + = & & & & & & & o & & o & & $ & & ; 2 & o & & ",
"& & & & o & & & + & & & & & & & & & o & & & & & & & o & & & o & & : 3 2 2 & & $ & & o & & o o & & & & o & & & + & & > & & & & & "
};
