/* XPM */
static char *e89af5180f764f69b43cfb439c3c803dPmPrzhSIiFfBPDnD[] = {
/* columns rows colors chars-per-pixel */
"64 64 246 2 ",
"   c #050704",
".  c #040D05",
"X  c #090E06",
"o  c #060C08",
"O  c #090E08",
"+  c #041306",
"@  c #091405",
"#  c #041B05",
"$  c #091B05",
"%  c #061309",
"&  c #09140A",
"*  c #061B09",
"=  c #091B0B",
"-  c #0A1E12",
";  c #042305",
":  c #0A2304",
">  c #032B05",
",  c #0A2B04",
"<  c #05230A",
"1  c #09240C",
"2  c #052B0A",
"3  c #0A2C0C",
"4  c #11280A",
"5  c #033304",
"6  c #0A3304",
"7  c #023B04",
"8  c #083B06",
"9  c #05330A",
"0  c #0A320C",
"q  c #043B0A",
"w  c #0A3B0C",
"e  c #103308",
"r  c #0B2511",
"t  c #042B11",
"y  c #0B2D11",
"u  c #043410",
"i  c #0B3412",
"p  c #063B11",
"a  c #0B3A12",
"s  c #034304",
"d  c #094304",
"f  c #034B04",
"g  c #0A4B05",
"h  c #04430B",
"j  c #09450C",
"k  c #044B0A",
"l  c #0B4C0D",
"z  c #11470B",
"x  c #035404",
"c  c #035B04",
"v  c #0A5B04",
"b  c #05540A",
"n  c #0C5708",
"m  c #055A0C",
"M  c #125C0D",
"N  c #0B4413",
"B  c #0C4D13",
"V  c #16411C",
"C  c #124B1A",
"Z  c #045012",
"A  c #0C5414",
"S  c #065C14",
"D  c #0B5B14",
"F  c #0D531A",
"G  c #0D5B1A",
"H  c #14551C",
"J  c #036504",
"K  c #026B03",
"L  c #096D03",
"P  c #04640A",
"I  c #0A660A",
"U  c #056D0A",
"Y  c #106A09",
"T  c #037304",
"R  c #027904",
"E  c #05750B",
"W  c #0A720C",
"Q  c #027C0B",
"!  c #10700C",
"~  c #066314",
"^  c #0B6214",
"/  c #0B6B14",
"(  c #076318",
")  c #0D621C",
"_  c #0D6C1B",
"`  c #126517",
"'  c #11651C",
"]  c #126B1C",
"[  c #0A7315",
"{  c #0A7B14",
"}  c #057418",
"|  c #0C721A",
" . c #0D7A1D",
".. c #147617",
"X. c #11731C",
"o. c #137E1D",
"O. c #135E22",
"+. c #0D6823",
"@. c #176724",
"#. c #0C7825",
"$. c #137321",
"%. c #127C22",
"&. c #167C2B",
"*. c #187E28",
"=. c #048304",
"-. c #048A05",
";. c #04840A",
":. c #0B8308",
">. c #10860B",
",. c #049103",
"<. c #06930D",
"1. c #0C8116",
"2. c #068A17",
"3. c #0B831B",
"4. c #0A8A1B",
"5. c #12861C",
"6. c #099318",
"7. c #0D9B1E",
"8. c #09A61A",
"9. c #06B01A",
"0. c #0C8424",
"q. c #0B8827",
"w. c #0D8D24",
"e. c #148524",
"r. c #128B24",
"t. c #198729",
"y. c #148D2B",
"u. c #0E9322",
"i. c #0E9B25",
"p. c #0F952A",
"a. c #0E9B2B",
"s. c #129224",
"d. c #129A24",
"f. c #16952A",
"g. c #159C2D",
"h. c #1A8831",
"j. c #159433",
"k. c #149E32",
"l. c #0AA42A",
"z. c #0DAC2D",
"x. c #14A526",
"c. c #13A52B",
"v. c #19A42F",
"b. c #14AB2C",
"n. c #0EBC28",
"m. c #14B22C",
"M. c #15B828",
"N. c #15BC2C",
"B. c #0EA838",
"V. c #15A631",
"C. c #1BA535",
"Z. c #14AB32",
"A. c #1AAC32",
"S. c #15B432",
"D. c #1AB635",
"F. c #15BB34",
"G. c #19BD34",
"H. c #1EB63A",
"J. c #16BD38",
"K. c #1CBB3B",
"L. c #24AB34",
"P. c #20B93B",
"I. c #14C82C",
"U. c #0ED22F",
"Y. c #0FC434",
"T. c #0DC835",
"R. c #14C334",
"E. c #1AC334",
"W. c #15CB35",
"Q. c #18CC34",
"!. c #16C43D",
"~. c #1AC43B",
"^. c #15CB3B",
"/. c #1BCC3D",
"(. c #17D337",
"). c #1AD43C",
"_. c #1CDB3E",
"`. c #20C53C",
"'. c #20C93D",
"]. c #20D73F",
"[. c #19E63D",
"{. c #1AB443",
"}. c #24B747",
"|. c #1BCB41",
" X c #1CCA46",
".X c #15D242",
"XX c #1BD442",
"oX c #16DD43",
"OX c #1BDC44",
"+X c #1ED44C",
"@X c #16DD49",
"#X c #1DDC4B",
"$X c #1CDD52",
"%X c #25C744",
"&X c #24CB45",
"*X c #21D244",
"=X c #21DB4B",
"-X c #28D849",
";X c #27DA54",
":X c #07E446",
">X c #14E746",
",X c #1BE444",
"<X c #19EC45",
"1X c #15E64B",
"2X c #1CE44B",
"3X c #15EA4C",
"4X c #1AEC4E",
"5X c #1DF14D",
"6X c #1FE553",
"7X c #1CEC53",
"8X c #18E856",
"9X c #1BF254",
"0X c #1CF55B",
"qX c #1CF85F",
"wX c #22E245",
"eX c #21E54D",
"rX c #29E14D",
"tX c #22EB4D",
"yX c #23E453",
"uX c #23ED54",
"iX c #2BEE57",
"pX c #23E558",
"aX c #22ED5A",
"sX c #22F354",
"dX c #27F657",
"fX c #23F35C",
"gX c #23F95E",
"hX c #1AFF68",
"jX c #1FFD74",
"kX c #29EC66",
"lX c #34E968",
"zX c #25F564",
"xX c #2AF661",
"cX c #24FA65",
"vX c #2BFD65",
"bX c #26F768",
"nX c #25FC6B",
"mX c #2AFB6C",
"MX c #34F76D",
"NX c #25FE73",
"BX c #2AFD74",
"VX c #28FB79",
"CX c #2CFE7C",
"ZX c #32FE7C",
"AX c #2AFE82",
"SX c #37F881",
/* pixels */
"; ; 7 u.N.2 # . + # w.q.% o % + ^.,X* + + t 0.#X# + # ]._.G.& # 2 r.s.: % # : F.# * + < * * % * % & % % % + = = + + = * = * < + ",
"< o.h w.K.; $ * r 3 u.q.% . + ; ^.[.; + + #  .#X# # $ M _.S.* + p.i.r.$ + + S.Y.; # # r > * + = $ # + % % # % % + = < * * # = * ",
"# n /.(.XX).{.& 3.y.s.u.# + 2 5 .X,X9 # < <  .2X; 2 * ; @XS.+ + % # r.$ @ / j R.# # K.,X0 # # < &X; + * = * % & + % + % + * + * ",
"# < 1 8 q ; 2 = &.t.s.5.e.+.h.#X/.>X9 q 3 w r.2X8 2 3 ; OXF.3 < # # 0.@ & # j R.# + 2Xm 8 ; 5 K..X; # 2 ).3 # % > * + & + % * + ",
"* * % * 1 # % + % * < # & # > q / B.,X[.2 2X,X,XXXg.> j ,XY.> 0 ; ; g., % % A ~.# # # 5 9 # 9 5 ).; * Q.oX, * 0 /.Z ; < #X; < 6 ",
"* + + & 1 % + . % = * + & & < > 2 ; ; ; 9 s 5..X#X1X_ 1X@XwXg.> ; > p.: > < ^ ^.; + ; 7 9 ; * 2 /.; ; 7 oX9 * _ R.B ; e.#X> 7 uX",
"* # + % * < + + = r < = % % + # * + + < 1 3 # * 2 < < 9 6 w 2 < +.y.d.d.i D.~.T.` > 9 h q > 9 9 ).> > 9 XX, * ; ^.B * 8 oX> (.5X",
"& & . % * + + . % % * = & < < < r * . = = = % % 3 * * ; * 3 ; ; # 2 ; 2 3 t.R.R.E.s =XoX2.f 9 2 .X5 9 8 1X9 : 2 ^.j ; ; oX5 2X<X",
"% % % % & % . . . % . . % + & + % # . + + % + + * < < + + r = < X % < * < % < * 2 * # ; ; ; h +.W.XX, [.OX@X, ' /.( , i OXg =X<X",
"+ + . & & + . + . & % + o % . . % + . % # % . % . + + + . + y 2 % + < r * + 1 # 3 * # * * # ; < 9 ; < ^ D./.: Z.|.^.5 r.OXg N.dX",
"o . + + . % + . & & % + % . % + % . . @ % % . . . . . .   . % + . + + # + . + * % % = & = + * % & % < + ; % * ; < , 2 w A e.7 b.",
"% % + + # + . . o % + # o o = * # + . % % % + + . . o + . . % % . . + % . . + % % % . o + % % < % % * * + + # * % < 1 0 : > 2 0 ",
"% + q z.r.+ + + # > 2XyX# % ; > l 8 # # + # # # + % . % o o % . o . % + % . % . & % . . . .   . . X . % . . . + + % 1 * 1 2 = * ",
"+ N l.Z.q.* + + 9 d 4X6X* * 5 0.gXzX6 > # > 2X`.# # . + X X . .   o + % % + % @ % .     + . . . . . . . . . . . + % * # * * * * ",
"& V 0 | d.# * % 8XpX4X6X* ; kXfXf f hX7 5 4X7 s l.2 # ; _ N + . + + F + % % @ j + + + . % . X & + + . & + X % + % + * & & % % % ",
"% + , ( a.t % % P h 4X6X; ; zXxXd f hXx m aX7 q sX> % G } N + % + j G # . + S x.+ + % # # % # : < # + + @ $ + % * # * * % * % % ",
"# 1 ; S p.2 % + * ; 4X8X; > cXxX7 q cX#X<X7X> 5 uX_ < + [ B < < F # +.; % *.^ V.+ + H.b.< ; u.7XXX4X7 @X3X6X5 x BX!.5 7 A.> * # ",
"$ < ; ~ f.9 # + ; 2 1X4X> > bXxX7 7 zX/.4XsX> 8 tX5.* #  .A # # + + ' ; % &.S b.# % D.7 ; ; #X_.P 3X6 2Xd 5Xs +X,XbXj *XzX5.; 1 ",
"= Z q } i.i < < 9 h <X8Xq > kXcXx f qXc v.9X7 s uX7 ; * 0.F # # # ; G * $ + D c.+ + # j < > 6Xm.8 uX1.9X7 ,X2.mXJ 4X=.zXx zX .wX",
"* l.S.S.m.m.y.$ 7X2X3X5X%XX.x cXv c vXf b 6X8 g 6Xq ; # 4.m : # # ; G < 2 # D b.# # * j > > eXV.q 2X1.tXf _.7.BXI 2X8.sXP bXP ~ ",
"# # 9 i 2 1 * * q h k l , ; > 7 cXbX0 > w 7 4X7Xw 3 F %.0.r.0.> [  . ._ y F 3.F.5 ; 3 z 5 2 OX$XK 8Xb 7Xf [.T nX! 5X<.0XP zXk 7 ",
"% % % 3 < % + # 1 p a < 1 2 2 > w 8 # 2 3 9 5 5 > 1 2 2 , B N 3 ' ' #.%.y A.S.D.z.> F.R.R.J.D 5XyXeXq 9X{ sXx cX=.bXK cXQ cXk q ",
". . + % % . @ % & = * + = & % + * # . + + % + + # % % # + # * # * & 9 t * * < < < ; * 2 t # ; y 3 : 0 0 ( 4 q d yX{ l o.xXb A.,X",
". + + % % + . + % + + + & + + + * % . + + % + # * % * * % * # + # * * % * # # % * # + + * * # < , & 3 0 ; # 0 7 6 N h 9 j q w w ",
"+ + . % % . . . o & % % o % % + O     + + + . + % + % * + = % * % % * # * & # * = * . + + . . + + . . . + + % % % % % # # + + # ",
". % % & & % % % & & * % o % & % % o . + . + . . % % % + . + % * . % * % & . * % + * + . + % . % % o + + . . . % + % + % + + + + ",
"+ . . o . X . % . O % % o . + . . .   . . . . .   . o . . . + + . . + # . . . + . . . . % o o . o o % % . + % . % . % % % . . % ",
". .   % . . . .   o . . .   . .       .   .   . . . . + + . % + % % + % o o . % o % . . % o . . o o . . . . . . . . . + . . . % ",
"+ + + r +.@ . . . % * < % . % . + ; . . + . . ; + + ; q f 7 > ; > 7 6 > % % ; @ % + + # # % + # + + + % % + + . + o + + + % * : ",
"+ + ; v.B.+ % % + % O.C % . * * O.( % + * # &.x.+ ; h ;XCXNXx j 6XcXhXf ; < 5.).* # ; S < * # 3 e.* + < k.& * * 2 # * < H.> > C.",
"1 C K.Z.b.1 & & @.G G H & & r &.@.X.% = * z.y.c.6 q kXCX;.^.;.R hXJ x.BX6 }.E.OX2 < _.m.w 1 y.).f.1 y A.c.2 + i i = ; OX~.> #X^.",
"< G j./ Z.* & & A H ' C & & * } +.' + = # l.%.b.2 q CXnXT <.9.Q sXJ T jXq .Xb.).9 < |.| w ; v.f.p.; < g.c.t % y i < : E.W.7 fXm.",
"# + # D x.# + . % @ G C . . % < ( ) . + + * %.c.> 7 CX#XK T tX,.).c I BXq 5 b.XXw ; 9 | l ; ; 9 d.> : a b.0 * 1 a < 2 q R.7 fX8.",
"$ # ; ` b.; % + % $ ( G % + * 2 +.) + + # # %.x.> 7 CXyXK T OX-.OXc K NX7 > z.XXq ; q | k > > 9 p.> ; p b.9 * 2 a < , h Q.h aXm.",
"< # 2 ] m.2 # * * ; ( H * % * < #._ + # < < 0.z.0 w mXBX;.*X=.Q hXL XXbXs 0 F._.5 2 j 7.b j ~ X.c.$.w %.m.%.3 p p i q '.#X_.5.zX",
"* $ 5 X.m.2 < + < 1 _ ] @ < t ; 0.%.# 2 r B g.l.s.j.L CX,XVXR J NXnXZXa.5  XOX@XoX6 |.XX.X%X|.XX).&X2 c.g.p.* y 2 2 ; 4.o.X.9 D ",
"+ S.N.R.F.J.k.< N B G A F i a F C h 2 3 < 1 < ; # ; 6 d g s > 1 2 9 7 ; # ; 3 ; : : * $ ; ; ; ; 1 = < < < # * + * # * $ * * # * ",
"= + < 1 < ; * = X % * * % + % % * + + % % + + + + + # # ; ; < # # ; < * * * ; * * # $ * * * % # & # * * + # + + % % * @ * % # % ",
"% + % * % + # % + % # # % + % + + . . + + + . + + % % # + % * + % % * * + o % % % % . % % % . % % % % % + % . . . o . . . . . o ",
". + % & % . + % + % * % + % % + % + % % * % + % % % + % . . + + . . % % . o + % & . . % % X . % % .   . . . o . . . . . . . . . ",
"% . . % % . . o . % % + X o % % % o . . . .     o .         . . X . . X . X % . % . . . % . . % % . * 1 % % 1 * . % % + ; * # # ",
". + . & & o . . o . o   o . . . .     .   . . . . . . . . . + . . o . % . . . . . . % < * @ * 2 + # r 1 + % * * % % % % r # * ; ",
". .   . X o % . o . . % o   . . o . . . + + . + # = * + + + * + + + ; * % % 2 * < # 5 h 8 < 9 } V.5 > $ R., + # < % + 3 F # _ XX",
".     % . . % . + * * % X % r < + + . * = < + + < + ; * # $ < & # 2 w # * $ x T.2 ; #X7X&X> s.zX0X|.2 ^ J., % 2 1 % ; $.G * A. .",
"% % ; w 9 # % + 2 , q h # < * # 6 g.* < . # ( E.# + # 2 V.0 < ; ; /.| < < m E.E.9 > ).7 9XU fX6.f.zX7 ~ E.2 * 1 2 % < ; G > > 5 ",
"# > x I c 7 ; ; 5 6 8XlX> 2 * ; 3X8X1 3 % < W.^.< + # y.b.0 < & U.H.| 2 1 ~.M.W.q 5 c.q 4Xx.0XE 1.sXl k E.2 2 y 0 * 1 1 B < ; > ",
"8 f AXZXVXBXf q 2XsXl p. Xq 2 .X,X1X, y $ `.~.W.1 * a q V.9 2 = 2 5  .9 ; ; R.(.7 s 7.m uX7.dX2.u.zX7 9 F.2 % * y . $ 3 G B K.*X",
"x ! VX-.*XBXJ f 9X&Xd M aXl 9 1X<X2X> 3 % t.G.|.< # 2 > Z.w 9 : , > 5.q < 2 R./.s 7 x.f 7XQ sXd.H.0X9 9 G.i # * y 1 1 X._ X.V.v.",
"=.CXT J >.AX=.K uXd 8 S 7Xs q 5 #X2X; u 2 0 S.Q.2 3 * ; V.9 * # ; 5 [ 9 < > N.Q.B 5 7X^.XX5 v zX~., q G i < @ # + % + % % + + # ",
"9.CXT P :.CX-.R 9Xv b f sX5 q s 2X2X2 ; y 3 m.Q.; # % # b.q 1 ; 1 5 [ z ; A.'.T.K.9 +X7X5 ; 1 7 > > < < < # % % + + % % % . X + ",
"Q.ZX:.U >.CX=.R uXc s 7 9X> 3 > @X2X0 3 < < L.^.f.j.y.x.z.b.f.; |.D._ 7 1 # 2 ; ; 1 # ; < * + # # % % % + . . . . . . . . % . % ",
"9.ZXT J ;.VXK c 0Xc.m s 6X> > 2 @X<X=X;X9 ^.R.^.E.Z.*.] > $ $ # : 1 3 2 * + # * # + % + % % . + o . % % . o . . . % % % = # + # ",
"K vXMX-.BXVXs 5 pXdXiXuX< ; }.&XZ 5 ; * # ; ; : # * + + + + * % & % % # o . . . o . . . . . % = . . < = . + = % * * ; ; < ; , p ",
"k I CXVXjXq.5 * : q y.9 * + # < < ; # # + # + # % % % + . . . .   . X % . . . . o . . . . + & $ + + + # % * # + 3 * 3 9 q , 7 N.",
"; 2 d f j 9 # # * ; < * % + * * # + . +   .   . o . . . . . X . o . 1 1 o . % . + + = % % + # ; 1 < ; ; 2 ; 2 9 =XA g mXmX7.mXI.",
"* ; 5 5 > # + + + % # * % . . .       .   .   +   . . . . + 1 * . o # % + + = + * + + + + % 2 > 5 5 : z ,X8 7 %XuX*Xd.gX5XwXmX<.",
"+ + . . . . . . o & + . o   . .     . + * %   . - . = * * * + # + ; # ; ; # # & * % + S # ; +XBXNXyX7.6XT gX~.,XW 7XsXn.I.5XvX=.",
". . . o o o + .   o . . o o % + .     . % % . + * + < < ; ; + ; ; 9 ; * * 1 A P.< # + b.; > nX#XiXvX(.].v cX(._.P fXsXM.I.[.cXQ ",
". . o & = . + . . = % + . . = * + . . * ; ; ; > < # ; q g e ; > =X2XzXc : > ~.E.# % L.r.0 8 BXK U.nXtXm.x bX_.oX[ sX2X,X9Xn.vXvX",
". . % * = = . . = % * + % . + * . + + # < , 5 7 3 ; 0  XqXnX7 h uXA rXyX2 G.E.^.# # # w.5 7 NXJ (.BX[.N.b fXR.,XD.,X4.SXvXx / tX",
"+ + * + + = + . % * , < % + % ; 7 3X+ # w lXyX2X4.x -XsXf ~.Y c 1.d J 7X; ; G.F.# + + e., 9 NX4.dXsX6.0XhX{ e g.w.2 > , , ; # # ",
"+ + * + % 1 + + # 9 7 0 ; % < , :X2X; ; m bXK L BXE qXD.f E ..c ~ q f aX2 ; F.G.* * # w.; 3 hXgXBX..8 =XJ.2 : > * # # * + $ + + ",
"+ = # < Y.4 # # {.9XL iX..9 w 4X6X4X> f mXmXc c NXE zXE s x W m { 7 / 2X; ; T.J.A # b.Z.b.#.6 f > ; * * # % % % % . . . & * . $ ",
"+ * ; #.J.> # # 5XqXM n zXw l 8X3X3X5 7 mXBXf x nXE fX1.7 ~ v x m.d ~.tX< k ~.R.k.= w.G # * ; ; # # + * % % @ % . % % . % * % = "
};
