/* XPM */
static char *b554004247934b4bfa54a8727d129b45pkSWhOpAyE1CYmgt[] = {
/* columns rows colors chars-per-pixel */
"64 64 241 2 ",
"   c None",
".  c #040D05",
"X  c #090E06",
"o  c #060C08",
"O  c #090E08",
"+  c #050704",
"@  c #041306",
"#  c #091404",
"$  c #041B05",
"%  c #091B05",
"&  c #061309",
"*  c #09140A",
"=  c #061B09",
"-  c #081A0A",
";  c #0A1E12",
":  c #032305",
">  c #0A2304",
",  c #032B05",
"<  c #0A2B05",
"1  c #05220A",
"2  c #09240C",
"3  c #052B0B",
"4  c #0A2C0C",
"5  c #11290C",
"6  c #122B04",
"7  c #033304",
"8  c #0A3404",
"9  c #023B04",
"0  c #083B06",
"q  c #05330A",
"w  c #09320C",
"e  c #033B0A",
"r  c #0A3B0C",
"t  c #10350C",
"y  c #0B2510",
"u  c #0B2D11",
"i  c #042A11",
"p  c #043410",
"a  c #0B3412",
"s  c #0B3A12",
"d  c #073A11",
"f  c #034304",
"g  c #094404",
"h  c #034C04",
"j  c #0A4B05",
"k  c #04420B",
"l  c #09450C",
"z  c #044B0A",
"x  c #0B4C0C",
"c  c #114309",
"v  c #134F0F",
"b  c #035404",
"n  c #035B04",
"m  c #05540A",
"M  c #055A0C",
"N  c #0B5805",
"B  c #0B4412",
"V  c #0C4D13",
"C  c #064113",
"Z  c #1B401F",
"A  c #11491A",
"S  c #0C5414",
"D  c #0B5B14",
"F  c #0D531A",
"G  c #0D5B1A",
"H  c #065714",
"J  c #14551C",
"K  c #046405",
"L  c #026C03",
"P  c #096D03",
"I  c #026509",
"U  c #056D0A",
"Y  c #0A6508",
"T  c #037304",
"R  c #017902",
"E  c #027C0B",
"W  c #07730C",
"Q  c #10700C",
"!  c #066214",
"~  c #0B6214",
"^  c #0B6B14",
"/  c #0D621C",
"(  c #0D6C1B",
")  c #076318",
"_  c #11651C",
"`  c #126B1C",
"'  c #126517",
"]  c #0A7416",
"[  c #0B7C15",
"{  c #0C721A",
"}  c #0D7A1D",
"|  c #057418",
" . c #12731D",
".. c #137919",
"X. c #106A09",
"o. c #0E5C20",
"O. c #135E22",
"+. c #0D6823",
"@. c #176724",
"#. c #0D7825",
"$. c #137321",
"%. c #127C22",
"&. c #167C2B",
"*. c #187E28",
"=. c #207E28",
"-. c #048304",
";. c #048A05",
":. c #04840A",
">. c #0B8308",
",. c #049103",
"<. c #05910C",
"1. c #0B831B",
"2. c #0A8B1C",
"3. c #088716",
"4. c #13851B",
"5. c #0D9B1E",
"6. c #099318",
"7. c #10860B",
"8. c #08A818",
"9. c #06B01A",
"0. c #0D8324",
"q. c #0A8B25",
"w. c #078325",
"e. c #148524",
"r. c #128C24",
"t. c #148D2B",
"y. c #198729",
"u. c #0E9323",
"i. c #0E9A25",
"p. c #0F952A",
"a. c #0E9B2B",
"s. c #139223",
"d. c #129A24",
"f. c #149C2C",
"g. c #16952A",
"h. c #159933",
"j. c #1A8831",
"k. c #0EA228",
"l. c #09A92C",
"z. c #14A526",
"x. c #13A52B",
"c. c #14AB2C",
"v. c #17A72B",
"b. c #14B22C",
"n. c #17BA2C",
"m. c #0EA838",
"M. c #14A630",
"N. c #1BA534",
"B. c #14AB33",
"V. c #19AB33",
"C. c #15B432",
"Z. c #1AB635",
"A. c #14BB34",
"S. c #19BD34",
"D. c #1EB63A",
"F. c #1DBD3B",
"G. c #15BA38",
"H. c #0DB92F",
"J. c #24AB34",
"K. c #20B93B",
"L. c #14C02E",
"P. c #0EC634",
"I. c #14C334",
"U. c #1AC334",
"Y. c #15CB35",
"T. c #18CC34",
"R. c #1AC53B",
"E. c #15CB3B",
"W. c #1BCC3D",
"Q. c #16C43D",
"!. c #0EDF3B",
"~. c #1AD43C",
"^. c #1BDB3D",
"/. c #17D237",
"(. c #0DD02A",
"). c #20C93D",
"_. c #20C53C",
"`. c #20D73F",
"'. c #18E83D",
"]. c #3F9548",
"[. c #24B747",
"{. c #1BCB41",
"}. c #1CCA46",
"|. c #16D144",
" X c #15D242",
".X c #1BD442",
"XX c #17DC44",
"oX c #1BDC44",
"OX c #1ED44C",
"+X c #1DDC4B",
"@X c #16DD49",
"#X c #1CDD52",
"$X c #21C441",
"%X c #24CB45",
"&X c #2ACB47",
"*X c #21D244",
"=X c #20DB4C",
"-X c #26D84C",
";X c #27DA54",
":X c #1BE343",
">X c #15E64B",
",X c #1CE34C",
"<X c #1AEC4E",
"1X c #16EA46",
"2X c #1DF14D",
"3X c #1FE553",
"4X c #1CEC53",
"5X c #18E856",
"6X c #1BF153",
"7X c #1DF55B",
"8X c #19F85F",
"9X c #07E446",
"0X c #22E145",
"qX c #21E54D",
"wX c #22EB4D",
"eX c #29E14D",
"rX c #23E453",
"tX c #23ED54",
"yX c #23E558",
"uX c #27EE57",
"iX c #23F35D",
"pX c #26F558",
"aX c #1EFF67",
"sX c #17FF69",
"dX c #1FFD74",
"fX c #2CED67",
"gX c #25EA65",
"hX c #34E968",
"jX c #25F564",
"kX c #2AF661",
"lX c #24FA65",
"zX c #24FC6B",
"xX c #2AFB6C",
"cX c #29FB68",
"vX c #25FE74",
"bX c #2BFD74",
"nX c #2CFE7C",
"mX c #25FE7C",
"MX c #32FE7C",
"NX c #34F76D",
"BX c #2AFE82",
/* pixels */
"          , Z @ @ q.|.|.|.q q.e q.q.].].].].q.q.q.].e q `.S.].].a ].].].].].> I.Z Z Z Z Z Z Z Z Z Z $ Z Z Z Z Z Z & 2           ",
"        D.: Z q.q.|.|.|.& q.q.q.E.:XZ w Z Z } ,XZ Z Z Z oXC.].].p.i.r.Z Z Z C.A.Z Z = Z Z Z & = Z Z $ & @ $ & Z Z Z 1 =         ",
"      ~.^. Xq.|.|. Xq.u.s w.Z Z  X:XZ w Z Z } ,XZ Z Z : oXC.- Z & $ r.# @  .z n.s - Q.:Xw : $ 1 %X, $ & 2 - & * Z Z @ @ @       ",
"  Z Z 7 q : q.|.&.y.q.4.y.+.j.#X{.1Xq e 4 Z r.,Xr 1 3 3 +XS.u s Z Z 0.% @ $ l Q.$ $ +XM r 1 7 F. X: $ 3 ~.4 @ $ , = * - & - &   ",
"  Z Z & Z Z Z @ Z Z Z $ - - < e ^ B.>X!., ,XoX:X.Xf.7 z =XP., w 3 : f.4 @ $ V W.$ @ $ 7 w : q 9 W.: $ /.oXw = q E.V $ 1 +X: :   ",
"- $ @ . @ Z Z Z Z Z - $ * * = , , 1 $ : w 9 s. X@X>X( @XoX0Xf., , , s.: < 1 ~ Q.: $ : 9 w = $ : W.: $ 9 XX, - _ Y.V : r.+X, 9 C ",
"- @ . @ . Z & @ = y = = & - = $ & $ @ ; 4 3 = = 3 1 3 , 8 r 3 : / y.d.d.a Z.R.P.' , , f 9 3 e 3 ~., , w oX3 $ : E.B $ 8 XXq K 3 ",
". @ @ . @ & @ . @ * = - - = 3 = 2 1 . = - = & & 2 = = 3 1 3 1 : - 3 : 3 4 y.I.I.U.k 0XXX3.h q 3 |.7 e 7 :Xq > 3 W.B : : oX7 I 3 ",
"@ o @ . o & . . o o o . & & * & - & @ @ @ & @ @ & 3 3 @ @ 2 = 1 . @ 3 - 3 @ 1 $ 3 = $ : , : e +.Y.%X4 !.oXXX< _ /.! < r oXj 8 3 ",
". @ . @ @ @ @ . o * @ o o @ @ . @ @ . @ $ & o @ . . @ @ . & u 4 @ @ i 2 & @ 2 - 4 & $ = $ $ 3 1 9 : 4 ~ Z.W.< B. X X7 r.oXj I q ",
"@ o . . o @ @ o & * & @ o . * @ @ . + @ & * . o . . . . . . & & o . @ $ . @ @ - @ & - - - & - & * @ = $ 1 @ $ 1 % 4 1 r S e.0 3 ",
"@ Z $ $ $ o . + . & $ $ @ o - = @ @ @ $ $ o @ @ . . o & . + & @ . . . & . . @ @ & & . o @ & & 1 @ @ = = @ @ $ = $ 1 2 4 2 , 3 4 ",
"Z Z e l.r.$ @ @ $ , ,XrX= @ : , v 7 $ $ @ $ $ $ $ @ . @ o & & . . . & @ @ . @ & * & + . . . + . . o o @ @ . @ @ . $ 3 - 2 3 1 = ",
"& Z k.B.q.$ & @ q g <X3X= $ 7 w.jXiX8 < $ , ,X_.% @ . @ O + . . . + @ @ & o * # & . + . @ o . . O . + + + + + . @ & & & * $ . . ",
"$ Z w { a.= & * 3XyX<X3X1 : gXiXh h sXf 7 <X9 f l., - : ( B . . $ . G $ & @ & l @ @ . . @ . O * $ @ $ & @ X @ @ @ & - - * & . . ",
"s @ 8 ) a.i & @ I k <X3X: % cXkXz f aXb M uX9 e uX: $ o.| l & # @ B G @ @ # H z.$ @ @ $ $ & $ > = @ . $ @ # $ & $ - $ - $ = . . ",
"Z Z : D s.3 & @ $ 3 >X3X: , lXcX7 0 jX=X2X6X, 7 tX] 1 @ ] V 2 3 F $ / 3 & &.! M.@ @ Z.c.: $ u.4X.X<X9 oX<X#X7 b bXQ.7 9 V.: . . ",
"Z Z : ! p.q $ @ : 3 >X<X, 3 jXkX9 9 jXW.2X4X, 7 ,Xe.1 $ } S @ $ $ $ / : @ &.D c.$ & S.0 > : ,XoXI <X8 5Xf 2Xf OX:XlXg *XcXq.. . ",
"Z S e | i.a 1 1 w k <X4Xe 7 fXlXb b 7Xn v.6X9 f tX0 1 1 0.G - $ @ 1 G $ = @ D v.@ @ : r : 3 4Xc.0 4X3.,X9 :X3.bXK <X-.kXm jX- 3 ",
"Z M.C.C.c.b.t.> 4X,X1X2X_. .m lXn n cXz x rXg j ,Xe : $ 1.M : $ $ : G 1 4 $ ~ v.$ $ = l , , qXM.7 qX2.wXg '.5.xXY ,X8.iXK jX- 3 ",
"Z = w a q 2 $ = e k z x 4 , 3 9 lXlXq , r 9 4X4Xw < F %.0.r.0., ] ] } ( u S 1.C.7 : 2 x 9 3 oX#XU tXj 4Xb 1XT zXQ <X<.7XU jX- 8 ",
"@ = $ u 1 @ @ - 2 d r 1 2 3 3 , r r $ 4 3 q 7 7 3 2 3 3 < B B u _ ` 0.#.u N.C.G.b., A.I.I.A.S 2XrX,Xk 4X[ tXb jX-.xXT lXE jX- - ",
"@ = @ & & @ & & * - $ & * & @ @ - % . . @ @ @ @ $ @ & $ $ @ $ $ = - u 3 - 1 1 1 1 1 $ 1 1 1 , u 4 : 4 w D 4 0 z rX..x } iX3 - - ",
"o @ @ & & . @ . @ * @ @ & @ @ @ - @ . $ @ @ @ $ = & = = $ - $ = $ = - & - $ $ $ = $ @ @ = & $ 1 < - 4 w : : w 7 7 B l 7 x e - - ",
"@ . @ & O o & . & * * & o & & @ & . . . . @ . @ & & & = & - = & & & - = & - = $ = & @ o @ . . @ @ . . @ o @ @ @ @ @ @ $ & $ * - ",
". @ 1 * & & & . * * & & o @ * & . . + & @ . . o & & @ @ . @ & $ . . = & & @ & @ - & . @ & @ . @ @ o @ @ @ . o @ # @ @ $ @ @ - . ",
"@ & = & @ . @ . O & & @ o . @ . . . + @ . . . @ . . o . + . & @ . . @ & . . o @ @ . . . & & o o o o @ o o o o @ & o & * . @ . . ",
"- & 1 o . + o . + . o . o + . . + . + + + + . . + . . @ @ @ @ . & @ $ & . o o @ o . . @ @ o . o . o . o @ . . o . . . @ o . - - ",
"$ $ 1 ; +.& & . . @ $ 1 o . & @ . : . @ . @ O : @ @ : 9 h 9 , , , 0 8 , $ @ $ # $ @ @ = $ @ $ @ @ $ @ @ & $ . @ . o @ $ @ $ - - ",
"Z - $ v.m.@ & . @ & @.A & @ & = O./ & & & $ #.z.$ : z ;XnXvXm l #XlXsXh 1 1 r.~.- @ : H - - $ w e.= $ - f.& = - 3 $ = : D., - - ",
"Z Z F.B.b.2 * * @.G G J * & y &.@. .& - 1 l.p.v.< 0 gXBXE E.;.T aXP z.bX8 [.U.^.q 2  Xb.l 2 t..Xg.2 u V.x.i @ a a = : +XR., - - ",
"1 Z h.^ B.= * & F J _ A * & - | ( +.@ * $ k.%.v.3 e MXzXT <.9.E 7XK T dXe  Xc.~.w : {.] r : f.g.p.: 2 f.v.3 & u a 2 > S.Y.9 - - ",
"s 2 $ D z.$ . . @ @ F A o . @ 1 / / . o @ $ %.z., f nX+XL T wX,./.n Y bXe 9 c..Xw : q  .B , 3 , p., 1 s c.a = 2 s 1 , e I.e = - ",
"Z Z : ' c.: @ $ $ $ / G & @ = 3 +.) @ $ = 1 #.z., 9 nXrXK T oX,.oXn K vX9 , C..Xe : e [ z , , 7 f., : r c.q $ 3 a 3 w k U.f 8 i ",
"Z y , ` b., = = - : ( J - $ = 1 #.( @ $ 1 : 0.l.w r cXbX-.*X-.E aXP *XxXf q H.~.9 , z 5.V g ! { v.{ r %.b.%.u d q a 0 ).=XoXK 3 ",
"Z - w  .b.3 1 = 1 2 ( ` @ = 3 1 0.%.$ 1 2 F f.l.s.t.P BX0XmXT K dXzXbXa.9 %XoX@XXX< %X.X X%XW..X~.%Xi x.f.p.$ 2 3 i , 2.4.} i i ",
"Z D.n.I.C.G.h.1 B B G G F u s F V C 3 4 = : 1 1 - , < g g f , 4 3 7 9 : = $ , : > > % % : 1 1 : 2 - 1 1 1 = $ @ - & $ - - $ . - ",
"Z 2 2 1 3 1 = - @ & $ % & @ * & - $ . # = & @ @ @ @ $ : , $ 1 $ $ $ 3 = - = 1 = = = = = $ - $ = % = = = = $ $ & & @ = $ @ - . - ",
"$ & # - @ @ @ - @ @ @ - & $ @ @ & @ . @ @ @ . @ @ & @ $ @ @ - $ & & - = & & & & & & . & & @ . # & & & & @ o o @ . . . @ . . . . ",
"& $ = 2 & o $ @ @ @ = & & @ & & & @ @ & - & & & & & . & . . @ @ . . & & . + & & & . . & & o . @ o . + . . . . + . + . . . . . . ",
"$ & 2 1 & o . . . & o @ O o * @ o + . . . . + + + + + + + + . . X . & X . X & . & . . @ . . . @ @ o = 2 @ & 2 - @ & @ & = - . . ",
"& $ @ $ O . X @ o . . . o + . . + . . . + . . . . + . @ @ . . . . + . @ . . . . . o & 1 $ * 2 1 $ $ y 2 @ $ = = @ & $ @ u $ . . ",
"$ $ 2 = & + @ . + & @ @ o + & . . + . + @ @ . @ $ 2 1 @ @ . 1 @ @ @ 1 = @ @ 1 $ : $ 7 C e > w | M., < $ A.4 . - 3 . - 4 F $ 3 - ",
"& @ - 2 O . o . @ - = @ & o y 1 - & @ = - = $ @ = $ = $ $ - 1 - $ , s $ - - n P.3 $ +X<X%X7 u.iX7X{.3 ~ I.< @ 3 2 & = $.F $ - - ",
"@ % 2 r e $ $ @ 4 > e k : = = $ 8 f.$ 1 . $ / U.- $ @ i M.4 3 $ , W.` 1 1 M U.T.e , ~.k 4XU iX6.g.iX0 ^ U.q - 2 4 @ 2 1 G , : - ",
"$ : m Y n 7 : $ 7 7 4XhX3 , = : <X5X2 4 @ 1 /.Y.: @ $ r.x.4 3 - T.D.{ 3 3 R.n.E.e 7 x.f <Xz.lXT [ iXz z I.3 3 4 q 2 1 1 V 3 : 8 ",
"0 h nXBXnXbXh e <XtXx d.}.e , |.:X>X4 3 - _.F.Y.1 - s k V.q u = , 7 [ d : : A.T.9 9 5.m <X5.pX3.u.jXe q S.3 $ - y . - < G V I = ",
"h Q bX;.OXbXn b 6X&Xg D uXl q 1X<X,X3 3 % *.I.{.1 $ 3 , M.r q > , , 4.e 1 3 I./.f 9 z.z 4XE pXd.D.7Xq 7 S.a & = u 2 1 $.(  .- - ",
"-.nXT I >.BX:.T uXg f M 4Xf r 9 >X,X: 3 3 r C.T.3 4 $ : B.7 $ $ : 7 ] 3 : < n.T.B 7 4XE..X7 n jXR.4 e D a - % $ @ @ $ & . $ . . ",
"9.nXT n >.nX;.R tXb x h uX9 e e ,X,X4 1 4 4 b.Y.: % # $ c.e 2 : 2 7 [ c : V.W.P.R., +X4X9 : 2 0 , , 1 1 1 = $ & @ . & & @ o . . ",
"T.MX>.U >.MX-.T tXn f 9 6X, 3 , oX,Xw 2 1 1 J.Q.g.h.t.z.l.v.f.$ {.S.( 9 1 : 3 : 1 > - $ = $ @ $ - @ $ & @ @ + . . . . . o - & . ",
"9.nXR K -.BXL n 7Xc.M f yX, , , @X1X=X;Xp E.Y.E._.B.*.( , % % % > - 4 u & $ = $ = & & $ * & . @ . . & O o . . . o & & & = - - - ",
"T NXNX;.vXmXh 7 yXuXuXwX1 $ [.}.H , : : $ : : > $ @ $ @ @ @ - $ & * $ @ . + @ . . . + . @ . & - . . 1 ; + @ & @ - % = 1 , - - - ",
"j K nXnXvX2., = > r g.q $ $ - : 1 : = $ @ $ @ $ @ & @ @ . + . . + + & & . . . . . . . & o . - & @ @ $ @ $ - $ & 1 2 4 q , < - - ",
"Z 1 = 1 k w $ @ = 1 1 = @ @ - - $ @ . @ + . + . o . X @ . + & o o X 2 2 o o & o @ . - - @ @ $ = 4 1 : , 3 : 3 e +XM j cX, - - - ",
"$ & 1 7 , $ $ @ $ = $ - & . @ . + + + . + . + @ . + + . + @ 1 = . . @ & @ @ = @ = @ @ & @ - , 7 7 , > c :X7 0 %XuX*X5., 8 - - - ",
"- & 2 1 + . . . + o @ o o + . . + + . @ - @ + . = o = = = 1 @ $ @ : $ $ - $ $ * = $ @ H $ : OXxXvXrX5.4XT iXY.:XW I I 8 - $ 8 - ",
". 2 = - o . @ . o + . . o . o $ . + + . @ $ + $ ; @ 2 1 : $ $ $ 1 q , : : - G K.: % @ M.: , zX+XuXcX~.~.N jX^.^.I I 8 - - , - - ",
". = 1 1 - & @ . + * * . o . = = . . . = = : : , : $ > e z t , < ;X<XiXM > , R.U.$ @ N.s.8 r zXU (.xXwXb.b lXI , I 8 - $ , 1.- 3 ",
"  @ Z = - - . + ; $ = = & . @ = @ @ @ $ 4 > 7 9 4 1 q {.7XzX7 k wXD -XrX3 S.U.Y.$ % $ 0.7 e vXK /.bX'.n.m , I 8 8 = - , . b .   ",
"  @ - @ $ = @ . & : w 1 & # @ = 9 >X$ $ 0 hXqX,X2.b -XiXh R.X.n [ g K <X, $ S.A.$ $ $ e.> e K 2.K uX6.pX, , 7 , = = , . . . .   ",
"      @ & 2 & @ $ 3 9 8 : @ : w 9X,X$ : m xXL U zXW pXC.- U 4.b ! $ K m 3 : A.S.$ @ $ k : 4 I K Y [ r +X, , % - - . . . .       ",
"        - 5 - $ - - 3 -  .3 r 3 = k - - j 3 n - , 3 , W - - , m , - 3 m : , $ - = 1 f - f #.8 h - - $ $ @ & & @ . . . .         ",
"          , $ $ - - , 4 - - - - 3 - - - - 3 , & : 3 , , - - - - 3 - - $ - - - - = = : - - - : & - $ @ $ & & - & . . .           "
};
