/* XPM */
static char *_de96c3cdf2744d5b43cf907f2a1478aAfcMeq9pDyGHX0Wx[] = {
/* columns rows colors chars-per-pixel */
"64 64 214 2 ",
"   c None",
".  c #030303",
"X  c #2D2D3D",
"o  c #362D3E",
"O  c #3B2D3F",
"+  c #2E2D36",
"@  c #0F5B19",
"#  c #292E44",
"$  c #322E45",
"%  c #2B324D",
"&  c #2C3247",
"*  c #3A3145",
"=  c #33334C",
"-  c #3A344B",
";  c #313F4B",
":  c #2B3553",
">  c #2B3A54",
",  c #313752",
"<  c #3B3652",
"1  c #333A55",
"2  c #3B3A53",
"3  c #3C3E59",
"4  c #442E41",
"5  c #4D2E41",
"6  c #562F41",
"7  c #562949",
"8  c #453143",
"9  c #4D3345",
"0  c #44364C",
"q  c #4B364C",
"w  c #4B394E",
"e  c #45394F",
"r  c #553143",
"t  c #5B3244",
"y  c #54354A",
"u  c #5A364C",
"i  c #543A4E",
"p  c #5B3E4F",
"a  c #433B54",
"s  c #4D3A52",
"d  c #453953",
"f  c #523D52",
"g  c #5A3E51",
"h  c #643345",
"j  c #6A3347",
"k  c #6D3549",
"l  c #6D3B4C",
"z  c #65364A",
"x  c #733446",
"c  c #7B3445",
"v  c #74354A",
"b  c #743C4C",
"n  c #7C3B48",
"m  c #6D3D52",
"M  c #633F50",
"N  c #733C52",
"B  c #7D3950",
"V  c #5F404F",
"C  c #434056",
"Z  c #5D4355",
"A  c #574658",
"S  c #654255",
"D  c #6D4353",
"F  c #674B58",
"G  c #734454",
"H  c #7A4453",
"J  c #7C4B56",
"K  c #7B485B",
"L  c #7A555B",
"P  c #70434F",
"I  c #78635D",
"U  c #833546",
"Y  c #8C3443",
"T  c #843B4A",
"R  c #87384A",
"E  c #9D3846",
"W  c #983A4A",
"Q  c #843A52",
"!  c #8B3D56",
"~  c #A93744",
"^  c #AD3946",
"/  c #BC3742",
"(  c #B23A46",
")  c #BD3B45",
"_  c #B33846",
"`  c #B03F52",
"'  c #C73745",
"]  c #C63A46",
"[  c #C93846",
"{  c #CF3E4A",
"}  c #DA3C47",
"|  c #D13F47",
" . c #8E414F",
".. c #89474D",
"X. c #94414E",
"o. c #9D414E",
"O. c #834854",
"+. c #9C4552",
"@. c #934B55",
"#. c #9E4B56",
"$. c #875256",
"%. c #8C5256",
"&. c #825859",
"*. c #945358",
"=. c #835343",
"-. c #AB444D",
";. c #A74148",
":. c #B6444D",
">. c #BA464C",
",. c #A74752",
"<. c #B34C51",
"1. c #BC4B50",
"2. c #B25453",
"3. c #BC5453",
"4. c #BD5459",
"5. c #B35758",
"6. c #AA5A5A",
"7. c #8D625D",
"8. c #82645D",
"9. c #97665E",
"0. c #B6635A",
"q. c #835B61",
"w. c #88656E",
"e. c #B27866",
"r. c #A5677A",
"t. c #AE6B6E",
"y. c #C9474C",
"u. c #D2424B",
"i. c #D34A4D",
"p. c #DD4248",
"a. c #CB524C",
"s. c #CC4653",
"d. c #CC4B51",
"f. c #C44957",
"g. c #D84959",
"h. c #C25353",
"j. c #C85857",
"k. c #DC5D54",
"l. c #D95452",
"z. c #E3464A",
"x. c #EB484A",
"c. c #F34B4C",
"v. c #FA4F4D",
"b. c #FC544F",
"n. c #F24D50",
"m. c #E65B54",
"M. c #FB5551",
"N. c #F65051",
"B. c #CD615A",
"V. c #CE6854",
"C. c #D86456",
"Z. c #CC7E59",
"A. c #DC7C59",
"S. c #E8665A",
"D. c #F66857",
"F. c #FB7458",
"G. c #DC4C62",
"H. c #CE6E7B",
"J. c #E8636C",
"K. c #F16865",
"L. c #ED7261",
"P. c #FF6D74",
"I. c #1DA362",
"U. c #F6DD04",
"Y. c #A78A6E",
"T. c #B8906E",
"R. c #CA8B5B",
"E. c #EE8559",
"W. c #FC845E",
"Q. c #FB8A5C",
"!. c #F48A5B",
"~. c #D58E6A",
"^. c #D5926B",
"/. c #FE8C6A",
"(. c #FE9661",
"). c #FE8871",
"_. c #0089D2",
"`. c #1490F5",
"'. c #9E9FA3",
"]. c #9FA0A4",
"[. c #9BA6B8",
"{. c #A1A2A5",
"}. c #A5A6A9",
"|. c #A7A8AC",
" X c #A9AAAE",
".X c #ADAEB1",
"XX c #B4B5B9",
"oX c #B9BABE",
"OX c #B3B4B8",
"+X c #AFB0B4",
"@X c #E4CC88",
"#X c #EED38A",
"$X c #C5C6BE",
"%X c #BCBDC1",
"&X c #BFC0C4",
"*X c #C2C3C7",
"=X c #C5C6CA",
"-X c #C4C5C9",
";X c #CFC2C8",
":X c #C9CBCE",
">X c #C9C5C7",
",X c #CCCDD1",
"<X c #D2D2D4",
"1X c #D6D7D9",
"2X c #DADBDD",
"3X c #D7D8DA",
"4X c #CFD0D4",
"5X c #DDDEE0",
"6X c #DFE0E2",
"7X c #E2E3E5",
"8X c #E5E6E8",
"9X c #F9F5E9",
"0X c #FEFFFF",
"qX c #FCFCFC",
/* pixels */
"                                                                                                                                ",
"                                                                                                                                ",
"                                                                                                                                ",
"                                                                                                                                ",
"                                                                                                                                ",
"                                                                                                                                ",
"                                                                                                                                ",
"                                                                                                                                ",
"                                                                                                                                ",
"                                                                                                                                ",
"                                                                                                                                ",
"                                                                                                                                ",
"                                                                                                                                ",
"                                                                                                                                ",
"                                                                                                                                ",
"                        . . . . . . . . . . . . . . . . . . . . . . . . . . . . . . . . . . . . . . . . .                       ",
"                      . . . . . . . . . . . . . . . . . . . . . . . . . . . . . . . . . . . . . . . . . . .                     ",
"                      . . =X=X=X=X=X=X=X=X=X=X=X&X&X:X=X=X=X=X=X=X=X=X=X=X-X-X-X=X=X-X-X=X=X=X:X=X=X=X=X. .                     ",
"                      . . a 3 1 1 1 1 1 : : : : % % % % : : = Z M f G D S M i w e L &.7.; #.#.,.$.& * * . .                     ",
"                      . . 3 > 1 1 1 1 : : , : : % % % % : , a m g f G S g A J a q &.7.9.7.$.b l b & x * . .                     ",
"                      . . 3 3 1 3 1 1 1 1 , : : : 1 , & % i >XA ;X;XS A A s J K J 9.9.Z S S l # $ c z t . .                     ",
"                      . . a 1 1 > > 3 : 1 : a , , , % 3 a 0Xs w f ;XA A A A L L T.@XL.L.K.s & = - h t r . .                     ",
"                      . . 1 1 1 1 1 1 1 : , 1 , , : : = 0X0XqXA 0Xq.f s s s Y.Y.@X@X#XB.B.G 0 0 q $ $ h . .                     ",
"                      . . a 1 1 > 1 1 a > , 1 : , , , 1 1 f qXD 0X0Xs d L L 7.~.^.~.^.^.L.L.-. .X.c r 6 . .                     ",
"                      . . a 3 a 1 1 1 , w e : , = % < < < = * * - u 7 H J O.*.e.e.e.e.T.m.u.z 2.+.c U U . .                     ",
"                      . . s g y a 3 1 1 3 a M , , = , = , < q 0 0X0X0XqX0Xu e.7 m D 4.4.m.s.l ....d. .X.. .                     ",
"                      . . Z u i D G d N > 3 C p , - = , < 2 < 0 8 N m B Q Q h m m 4.j.j.j.!.(...j.S.Q.b . .                     ",
"                      . . &.D D G K G N D C C Z i = = < < < < < N N N Q Q ! h j g 4.B.B.C./.(.k.F.D.F.F.. .                     ",
"                      . . e @.@.*.%.,.m D M C w w e < S e s s u ` s.g.G.N R j z y G H @.#.0.V.l.S.m.D.D.. .                     ",
"                      . . w i *.$.-.+.+.G G G *.J S f A e w i | :.) ` K.J.J.G.f.j k q $ 6.r p.6 F.m.D.D.. .                     ",
"                      . . f p *.$.+.+.+.-.G I $.J Z f s w w q ` M.M.N.s.W ` 7 v k j w q x t u.u.E ;.S.D.. .                     ",
"                      . . l B M ,.+.+.@.@.I 8.A A e 0 0 8 9 r ' [ [ [ E.R v W k j h q w x y u.y.y.l.a.a.. .                     ",
"                      . . H H X. .l.d.h.h.D < - F 0 & = * r t ' [ ' E.!.>.z W R U h h y x * 1.j./.u.u.y.. .                     ",
"                      . . H H :.d.d.h.h.3.3.V - F $ = * * * h [ ' E.!.Q.( r Y U U c 7 x _ ^ Y E x.F.>.y.. .                     ",
"                      . . n ..,.1.>.k.3.3.h.0 0 o.8 w E ~ $ O } E.!.Q.Q.5 n.* 4 5 6 ~ ~ / / x.z.z.c.c + . .                     ",
"                      . . .. .,.y.h.y.S.C.5.o.X.R 0 ) ] ~ ( _ / / c.c.v.z.x.Y 6 7 ~ ~ ~ } / E ) ( h c O . .                     ",
"                      . . T y ,.-.h.i.i.R.k.1.:.1.n ) { _ ^ / p.z.M.M.M.c.c.E 6 ~ ~ E E t 6 6 o 4 5 O X . .                     ",
"                      . . T U ,.2.5.A.Z.R.V.:.1.1.C.k.i.a.^ p.z.M.N.] z.c.x.} 4 E ~ E t 6 c O o o o 8 X . .                     ",
"                      . . R R 2.<.2.2.).(.).P.9X X$XqXH.@ + I._.9XqXP.`.[.U.r.w.r.H.t.0X=.>Xo * 4 o 8 8 . .                     ",
"                      . . . . . . . . . . . . . . . . . . . . . . . . . . . . . . . . . . . . . . . . . . .                     ",
"                      . . . . . . . . . . . . . . . . . . . . . . . . . . . . . . . . . . . . . . . . . . .                     ",
"                      }.}.}.}.}.}.}..X}.|. X.X.X+XOXOXOXXXoXoX&X%X-X-X,X,X,X,X,X4X1X<X1X1X2X5X5X2X7X7X6X7X7X                    ",
"                      }. X|.}.{.{.}.|..X}. X.X.X XOXOXXXXXoX&X. =X%X-X-X,X,X,X,X<X4X1X3X1X5X1X5X6X7X6X7X7X6X                    ",
"                      |.}.}.{.}.}.}.|.}. X.X X.X+XOXXXoX&XoXoX. . -X-X=X:X,X,X,X<X1X<X1X1X3X5X5X2X2X2X5X7X6X                    ",
"                        }.}.}. X.X}.}..X X.X.X.X+XOXXXXXOXoX%X&X%X-X=X,X:X-X,X4X4X<X1X1X1X3X5X5X2X2X5X6X8X                      ",
"                                                        }.{.'.'.}.].].'.].                                                      ",
"                                                        *X*X>X=X-X&X-X&X-X  0X                                                  ",
"                                                        7X7X7X7X7X8X8X8X8X                                                      ",
"                                                        :X<X,X<X,X<X<X<X<X                                                      ",
"                                                    {.{.{.{.{.{.{.{.}.{..X.X+X                                                  ",
"                                                                                                                                ",
"                                                                                                                                ",
"                                                                                                                                ",
"                                                                                                                                ",
"                                                                                                                                ",
"                                                                                                                                ",
"                                                                                                                                ",
"                                                                                                                                ",
"                                                                                                                                ",
"                                                                                                                                ",
"                                                                                                                                ",
"                                                                                                                                ",
"                                                                                                                                ",
"                                                                                                                                "
};
