/* XPM */
static char *_f398668bab340b6ed249ea03f3160daQlFdkNPe9k73zWcB[] = {
/* columns rows colors chars-per-pixel */
"64 64 226 2 ",
"   c None",
".  c #1F1E24",
"X  c #1E1F24",
"o  c #1F1F28",
"O  c #211D24",
"+  c #211F24",
"@  c #201F26",
"#  c #221E26",
"$  c #231F26",
"%  c #241E26",
"&  c #201F28",
"*  c #221E28",
"=  c #231F29",
"-  c #212026",
";  c #202126",
":  c #232026",
">  c #222126",
",  c #222127",
"<  c #212226",
"1  c #212227",
"2  c #232227",
"3  c #242124",
"4  c #242126",
"5  c #242027",
"6  c #262027",
"7  c #242227",
"8  c #202029",
"9  c #212029",
"0  c #232229",
"q  c #21212A",
"w  c #22212A",
"e  c #242129",
"r  c #262329",
"t  c #282229",
"y  c #2A212A",
"u  c #29232A",
"i  c #2B222A",
"p  c #2C232B",
"a  c #2D262A",
"s  c #2A242C",
"d  c #2C242C",
"f  c #2D252C",
"g  c #2D252D",
"h  c #2F282C",
"j  c #32252E",
"k  c #33252E",
"l  c #33262F",
"z  c #34262D",
"x  c #34242E",
"c  c #3A272B",
"v  c #39262C",
"b  c #3C292F",
"n  c #3E2A2E",
"m  c #3A2632",
"M  c #3B2733",
"N  c #382830",
"B  c #3C2931",
"V  c #3F2A31",
"C  c #3D2834",
"Z  c #412A2F",
"A  c #432B2E",
"S  c #452B35",
"D  c #472B34",
"F  c #472D35",
"G  c #482C33",
"H  c #4A2C33",
"J  c #492E32",
"K  c #492D36",
"L  c #4B2F36",
"P  c #4D2F36",
"I  c #532E38",
"U  c #532E3A",
"Y  c #4E3037",
"T  c #523139",
"R  c #53323A",
"E  c #573139",
"W  c #543438",
"Q  c #58323A",
"!  c #5A333A",
"~  c #5B323B",
"^  c #5F333F",
"/  c #5C353C",
"(  c #61363F",
")  c #63363F",
"_  c #66343F",
"`  c #683741",
"'  c #693742",
"]  c #6A3742",
"[  c #6C3741",
"{  c #663942",
"}  c #6D3844",
"|  c #6D3845",
" . c #6E3945",
".. c #703845",
"X. c #723B45",
"o. c #763947",
"O. c #743B46",
"+. c #7B3F47",
"@. c #7D3D47",
"#. c #7C3E47",
"$. c #793C48",
"%. c #7A3D49",
"&. c #793C4A",
"*. c #7F3F49",
"=. c #7E4049",
"-. c #7F414D",
";. c #843F4B",
":. c #883F4F",
">. c #80404D",
",. c #86404C",
"<. c #86414D",
"1. c #89414A",
"2. c #88424C",
"3. c #8A414E",
"4. c #8B424F",
"5. c #8F444F",
"6. c #904351",
"7. c #914450",
"8. c #924551",
"9. c #974550",
"0. c #974552",
"q. c #944753",
"w. c #984653",
"e. c #994754",
"r. c #9D4755",
"t. c #9F4756",
"y. c #9A4853",
"u. c #9E4857",
"i. c #A04754",
"p. c #A04955",
"a. c #A04857",
"s. c #A44B58",
"d. c #A84B59",
"f. c #A94B59",
"g. c #AC4A5A",
"h. c #AF4D5B",
"j. c #AC4E5A",
"k. c #AD4F5D",
"l. c #B04D5A",
"z. c #B04C5D",
"x. c #B24F5C",
"c. c #B7515D",
"v. c #BA515E",
"b. c #B84F61",
"n. c #BA5163",
"m. c #BB5262",
"M. c #C64F65",
"N. c #C25161",
"B. c #C05261",
"V. c #C35562",
"C. c #C55562",
"Z. c #C95465",
"A. c #CB5665",
"S. c #CA5566",
"D. c #CC5567",
"F. c #CE5767",
"G. c #CE5769",
"H. c #D35668",
"J. c #D25768",
"K. c #D2566A",
"L. c #D55B68",
"P. c #D5586A",
"I. c #D45A6A",
"U. c #D65C69",
"Y. c #D75A6C",
"T. c #D8586B",
"R. c #DE5B6B",
"E. c #DA5B6C",
"W. c #DA5A6D",
"Q. c #DC5A6C",
"!. c #DD5B6D",
"~. c #DF5B6E",
"^. c #DE5C6C",
"/. c #DF5C6C",
"(. c #DF5D6D",
"). c #DE5C6E",
"_. c #DE5C6F",
"`. c #DF5D70",
"'. c #E25B6D",
"]. c #E05D6D",
"[. c #E35C6E",
"{. c #E45E6C",
"}. c #E45E6F",
"|. c #E75E6E",
" X c #EB5F6F",
".X c #ED5F6E",
"XX c #E25E71",
"oX c #E55C71",
"OX c #E65D70",
"+X c #E55F70",
"@X c #E45E71",
"#X c #E75E71",
"$X c #E65D72",
"%X c #E95C70",
"&X c #EA5D73",
"*X c #E85F72",
"=X c #EB5E72",
"-X c #ED5F70",
";X c #EE5E70",
":X c #EF5F71",
">X c #EC5F73",
",X c #ED5F73",
"<X c #EE5E73",
"1X c #EB5E74",
"2X c #EF5F74",
"3X c #EE5F76",
"4X c #EF5F76",
"5X c #ED616F",
"6X c #E36070",
"7X c #EA6171",
"8X c #E96073",
"9X c #EC6070",
"0X c #ED6171",
"qX c #EE6071",
"wX c #EE6272",
"eX c #E96075",
"rX c #ED6074",
"tX c #EE6074",
"yX c #EE6175",
"uX c #EF6175",
"iX c #ED6076",
"pX c #F06170",
"aX c #F06073",
"sX c #F06273",
"dX c #F06075",
"fX c #F06276",
/* pixels */
"                                                                                                                                ",
"                                                                                                                                ",
"                                                                                                                                ",
"                                                                                                                                ",
"                                                                                                                                ",
"                                                                                                                                ",
"                                                                                                                                ",
"                                                                                                                                ",
"                                                                                                                                ",
"                                                                                                                                ",
"                                                                                                                                ",
"                                                                                                                                ",
"                                                                                                                                ",
"                                                                                                                                ",
"                                                            m.E.>X(.C.8.                                                        ",
"                                                    U.qXfXR.r.%.` O.e.E.4X>XQ.                                                  ",
"                                                1X1X2.j ; : : : : ; : @ @ s ;.(.tX                                              ",
"                                            *XtX<.: : : X X @ @ : : : 8 @ X 8 ; o.qX*X                                          ",
"                                          >Xg.% : : @ ; 8 : : @ o : @ 8 @ : ; : : : y.tX                                        ",
"                                        qXw.: % : 8 : o @ 8 ; X ; ; : @ @ @ ; : : 7 : %.tX                                      ",
"                                      >XP : : 8 @ : : : @ & ; : X @ : : X & 8 : : 8 : 8 S tX                                    ",
"                                    tX-.: : : : X ; X 8 @ X X : : ; X ; : 8 : : ; X @ 7 : ( wX                                  ",
"                                  OXx.8 : : ; ; : : : 8 @ : ; X 8 ; 8 : & : : X : : @ : : ; 8.7X                                ",
"                                  .XX ; : 8 X ; 8 @ ; X : : ; : X : : X X @ : ; : @ ; : : : 8 |.i.                              ",
"                                tX` X 8 : ; X @ : 8 : : : 8 : ; : : : ; ; ; @ : : ; @ X & 8 : j 7X                              ",
"                                6X: : : ; : 8 @ X @ ; : @ X : : 8 X : 8 : ; X ; ; : : ; : : 8 X J.n.                            ",
"                              >XT @ X : X : qX7 ; : : ; eX{ ; : 8 @ @ a 5X8 @ : : 8 1X: : ; X : H >X                            ",
"                              qX@ @ o X : @ Y.%.@ : 8 X tXF : 8 : X : y qX: 8 X : Q ].: : ; & @ & tX                            ",
"                            a.A.: : ; @ 8 : | qXU : : c.(.X @ : 8 X & X A.I.r : F 6X=.: ; : 8 : @ l.l.                          ",
"                            ].w.8 ; : @ : 8 : <.tXtX7XOX: @ @ 8 @ : @ ; X XXtXqXtXd.: 8 X ; : : : Q qX                          ",
"                            |.' X @ @ ; : ; : 8 y D M % : ; ; X : 8 ; : 8 : m H p : X ; 8 : X & : V qX                          ",
"                            *XL : X : : : ; ; X ; X & 8 ; : @ : : : : ; : : 8 X 8 8 X ; : : X : : h qX                          ",
"                            >Xc : ; 8 : : ; : : ; ; : : ; : : : ; : : ; : 8 : : @ : X : : ; ; : ; y qX                          ",
"                            >XZ ; : : ; ; : 8 : ; : ; : ; r T { 2.` W y ; X 8 : X ; 8 : @ ; : : ; s 7X                          ",
"                            *XI ; ; : ; ; : 8 : @ : 8 A 4XtX>X X(.7XqX5X5X~ : X ; : X 8 : & @ : : z fX                          ",
"                            |.>.8 @ : 8 X ; & X : s K.tX9.b ; : : : : j 6.qXY.B o : : : ; X : 8 @ L qX                          ",
"                            Y.k.: : ; : : ; X ; Y tXV.8 ; ; X : X : : : X 7 v.>XE : : ; X : : 8 @ +.OX                          ",
"                              6X: ; X ; : : : C 1X9.8 ; : : 8 : X @ ; 8 @ 8 @ %.qX) : 8 : ; : : : Q.                            ",
"                              >X7 @ 8 : X 8 N 7X;.@ : : 8 : ; : 8 : : X & X : : | qXV : X 8 @ : 7 5X                            ",
"                              A.d.X ; : : @ I.Y.: ; ; : : & X : : @ & X : ; : : : d.E.: : 8 @ @ 5.(.                            ",
"                                4Xx o 8 : ^ qX: @ : X @ : X @ @ : 8 : : 8 : : 8 ; :  X<.: X 8 7 1X                              ",
"                                aXj.X : : OX2.; ; : : ; @ 8 X ; ; X ; : X ; : ; @ : | >X8 : : 2.qX                              ",
"                                  qXV : J 4Xg : ; @ X ; : 8 : : X X ; X : : : : ; : y qXE @ j 5X                                ",
"                                  a.OXr +.4X; : : : 8 : : X ; @ & : : & @ X ; 8 X ; : S.r.: XXY.                                ",
"                                    Q.].N.A.X & ; X 8 ; : @ @ ; : : @ @ @ : : ; 8 8 : u.F.G.].                                  ",
"                                      (.tX6.@ @ : : : : 8 @ X : @ ; X ; ; : X ; : : 8 | qXqX                                    ",
"                                        OXaXg & ; @ : : : : : X X : : o X : : : : @ y |.6X                                      ",
"                                          h.qX>.: X ; 8 : ; : : 8 : : ; & 8 : ; ; ' qXN.                                        ",
"                                              OXtXX.: 8 : ; @ @ : : @ 7 : 8 : / qX*X                                            ",
"                                                  qXeXm...% 8 @ o : 8 8 ` b.eXtX                                                ",
"                                                      d.(.7XtXqXtX7XtXtX(.j.                                                    ",
"                                                                                                                                ",
"                                                                                                                                ",
"                                                                                                                                ",
"                                                                                                                                ",
"                                                                                                                                ",
"                                                                                                                                ",
"                                                                                                                                ",
"                                                                                                                                ",
"                                                                                                                                ",
"                                                                                                                                ",
"                                                                                                                                ",
"                                                                                                                                ",
"                                                                                                                                "
};
