/* XPM */
static char *b55a91051132464fc9a147561df3ed8cEAAcLHziw5wzBDHC[] = {
/* columns rows colors chars-per-pixel */
"64 64 137 2 ",
"   c #010102",
".  c #090403",
"X  c #040A03",
"o  c #090A04",
"O  c #03030A",
"+  c #09060C",
"@  c #06090A",
"#  c #0A0B0B",
"$  c #110D0C",
"%  c #0E110C",
"&  c #121504",
"*  c #11110D",
"=  c #020313",
"-  c #0A0513",
";  c #070A11",
":  c #0C0C11",
">  c #00021B",
",  c #0A071A",
"<  c #060A1C",
"1  c #0C0B1B",
"2  c #110B19",
"3  c #0E1113",
"4  c #131314",
"5  c #1B1A17",
"6  c #15161A",
"7  c #17191A",
"8  c #1B1B1C",
"9  c #261F15",
"0  c #201E1F",
"q  c #1B221C",
"w  c #222618",
"e  c #010224",
"r  c #040B22",
"t  c #080F23",
"y  c #00012B",
"u  c #010B29",
"i  c #0B1426",
"p  c #0B142A",
"a  c #161723",
"s  c #171C22",
"d  c #1C1C22",
"f  c #14142B",
"g  c #1A1E2A",
"h  c #000033",
"j  c #050C36",
"k  c #0A1433",
"l  c #04103A",
"z  c #0A113D",
"x  c #141A3A",
"c  c #1B1C3B",
"v  c #1E2123",
"b  c #1F2130",
"n  c #232323",
"m  c #252528",
"M  c #27282C",
"N  c #292A29",
"B  c #2A2A2B",
"V  c #2A2C2B",
"C  c #2A2A2D",
"Z  c #2C2D2F",
"A  c #292D30",
"S  c #2E2F33",
"D  c #2A2A34",
"F  c #26243C",
"G  c #232A3C",
"H  c #2B2D3A",
"J  c #2C3031",
"K  c #2F3035",
"L  c #2F313E",
"P  c #333333",
"I  c #313234",
"U  c #343537",
"Y  c #313139",
"T  c #333438",
"R  c #373739",
"E  c #3C3D38",
"W  c #393A3C",
"Q  c #3C3D3F",
"!  c #404436",
"~  c #444935",
"^  c #000343",
"/  c #07114E",
"(  c #151845",
")  c #010358",
"_  c #3F3F49",
"`  c #3B4868",
"'  c #434345",
"]  c #454545",
"[  c #474048",
"{  c #4B4B4B",
"}  c #434456",
"|  c #4D4C52",
" . c gray34",
".. c #57565B",
"X. c #5D5E5E",
"o. c #6D5C55",
"O. c #44486D",
"+. c #575966",
"@. c #5B5A62",
"#. c #5C6061",
"$. c #606163",
"%. c #646464",
"&. c #646469",
"*. c #67686A",
"=. c #6A6A6A",
"-. c #716662",
";. c #77726F",
":. c #6B6A70",
">. c #717171",
",. c #9B857A",
"<. c #2034A5",
"1. c #494B95",
"2. c #61678B",
"3. c #454FA4",
"4. c #4959B9",
"5. c #5F63AD",
"6. c #6E7CBA",
"7. c #7C87B4",
"8. c #8C898B",
"9. c #8B8B93",
"0. c #959597",
"q. c #99989E",
"w. c #8286AC",
"e. c #9FA0A4",
"r. c #AAADB4",
"t. c #A1AAE3",
"y. c #B0B5EF",
"u. c #A8B0F0",
"i. c #DAC9C2",
"p. c #D3D4D9",
"a. c #C7CDFF",
"s. c #CFD8F9",
"d. c #CFE5FF",
"f. c #E6F3FF",
"g. c #F8F3F9",
"h. c #F1F9FF",
"j. c #FFFFFD",
/* pixels */
"  O O 9.O ;           ;     +     O 4 '       O O p =   % s 3 @   K   ; O   O #         4   6               {               X 0 ",
"    m   +.= ; O   O       @ O 4 O               k 7.x   E =           5 . X       X         X   4     4     . @                 ",
". X     ; a ;   +   O : O               0.O   C > y O.1 O O O : @ 5 X         $ n   . O                 4   8       X   4 4   # ",
"        : O + O O         @             8 R     O = O O   X   J O #   #               X                     O o   # .           ",
"          O d W O | + A           O       O     O     +   X   @   8                   +     X           X               .   #   ",
"    4         @   @   = 1 O X 3 O   S         O   8   :   O     3 m     X O           X     #                           @       ",
"7   U @ 6 @ O O F 1   Y # X   @ M     6 O O         @ @ N #     O @   O * #         X # #       o             o     # .       o ",
"O 4         O O r O O         *.    C   X     #     +         :   8 #             . O n 4 . X   4                   O     X     ",
": '   n         O 6         # #         O       Q O : 8 O @ :   v     4         X       #   .                         X #     . ",
"O               O O     X     @ O         O O : 4       X   #     #     .       O 5       #                           # +       ",
"O @ 6   a 6 X O   O       O d :       O O       7     A             O     X     . 3   X     X   4   .   X + O     O   @ X       ",
"    %     X   @ O       M   _ @ #   -           X             X # 6 S + #   + X   X O 0           . 5 O O G > u O e <     .   @ ",
"  X   @   O   #.4       O d O   : = X         O O           o   V O O :       4   # O     *             = < t p h a.^ O   c     ",
"  O             : 8       O =   @ O > >       +     . m     #     # T         .       X . 7   4             O O / 3.^ O   = #   ",
"O O = O     O   @ 6   : : I   O O <.d.6.O ~                     @     O   X O   X         O .         N       #     { n . o     ",
"6 Y d D 4   O   8   X   O X O   O 4.f.u.=   o                     @ +   n             # X O           7 4         = O . + >     ",
"@ O @ O   @ @     O O   :   4   O u ) h     @             X         +     @         O   Z #     @         :     O = O   2 >     ",
"      O       O   C X :         O e q   .   O >               @     :     .     # + . X o       5         d       X X     X     ",
"6   : m #   : m   #   R   o   O X     .       #       X     @     X O             # # X # X o   O                             v ",
":         + :   # .         X 3 O         O .   X . #   .           X o             8.  4         X .                         + ",
"m : X   O 6       . . X             X 4   O .       # #       X                   X   +             4 X O                     O ",
"        O . X o   . 9   8                 X # n             O         X     # 7               # X 5 #                         d ",
"      O .     < h > 3     X             #                             #         X   o         6   X                         O   ",
"      . O   O j 5.z O .         *       X                 X                                     4 d .                         : ",
"4     # . 5 O j 1.( =           #   4 7 4     X   .   @ @ O         : O         .   X ` y.w.    -         X * # X       n 6 .   ",
"    #     *   t e =   X       X O * X    .    #   *           O   O               4   i y =   &             U           X #     ",
"#     X O   !     . .   n   #         8 .   #   5 j.4 X.  3   +                     @   +         6                             ",
"          X       . .         .   #   . S   X # 4 . #     3                     . J * . .     X         X           X     R     ",
"    O w       4   , O O     O       .         0   o . O   O O m O                         + :   O   @           . 4   X         ",
"#             O .   @       X     4     X   X 4       X @ #   @       #             X -       O         #   =.7     m o #       ",
". P 8 ; O O   w                                   8     X O . 4                         O                     . X X.      J #   ",
"  X.#   r = @         O         X               #             *   {                       X # P             #     O     8   Q . ",
"      O h.2.r     . . # O                       . N X   X   . O     d   X     4 # . 4 #   # 8   .         .   # @           o   ",
"  .   = l k O               X X                     #         X 8     o       # Z       n                     n           n     ",
"X .   = O           #               O O                     *                                     #             4     @         ",
"      f g   q   O   3     X       O @.    O                   U                 X   o       *     #               o .   n X X   ",
"# .   < > =   . O   X   ] X O     O O ,                     #                     o 8       X           O     # O X R       N   ",
"  o @       X O   O           .     U #     O X     X 4 Z   4 4             O X     @.#           o   = s.i     5   X           ",
"m O e.6   #                             @   O         O           #       X .     4 *.X 5         .     O O   .           @     ",
"  : p.A         @ 4                 @ O   O @ X.    n +       4   4   .             O     X       .   #   # O         @       . ",
"  O : :     X             ]       n O   O           :   O X                             + ] O .               +       7 X .   # ",
"  : O       O   o       #       @ #   &.O O @     4 8     4       X             X       X     =..           . O       #         ",
"O ' # 7 +     X       ]     # O     @ _ = O   7 O     X                                 X O                           #         ",
"    O H     3 +         O   +       O e t.y =         5 . # 8   O b ; @   #               +         @                       O [ ",
"  : H O W q.    O   .       O   8     p e > O                   O O O O     $           O               .                     . ",
": d     + O   6 X O           X *   X   O O   o       v O     X O O         #           , O               O                     ",
"O   5 O         + @ O   4 #   o   O       @   O 4                         #           O } L     @   7   # # 3 X               @ ",
"    3             +   @ @   O   O 2 - O       O     O r.. +     4           X O o +   @ O =   @   .       . 4   n X           O ",
"  8 n                 @.@   O O O O :.      8       O   -.i.  O         X         n   . O g   o         # 7   # .           X   ",
"X   %           O O |   4   @ a f                   O   o.,.    O             4         O   .   O         X O   X         n ]   ",
"  #     m   #     : O       O O >     X 8                 O X   #             #   #   X . #                           . .       ",
"# # #   :     C O O   O     X X % O   o 4     X       7       . P               o         X         o n               #   ;.    ",
"    O N O +     O             X                             X                                                         8.P .     ",
"    X   O : O             R ' I O   #               #         .                 O                                   ..g.$ .     ",
"n   o     @ @       * *     O             4               o   O             . #                     5         O @   + 8   .     ",
"    X   n     %       . O X +     # X     #       . 4 n     X 4                   X           #     7 X   X   .   + + O         ",
"      X #     o   %     * +   X X   6     *.O         . # #               @         #   O     # O       O O   6 #   X   . #   X ",
". O     .               X     4     O   + 8   O                         .           X   X   : 4           O ; ;     #       O   ",
"7                     8   4 .         8 X     O                   O     X               +     $.        O       #             X ",
"      X     X         0.# #         O         O     O X 4         X             O   @       @ O #                             O ",
"  X                               O .     4                         %.#                     4             # { .     #           ",
"          N           # 4         O     O   O .         + X         o       X               W # X O =   @   0                   ",
"    { X     #         . X           # S       O   . 8   X     . X       . #   X                     #                           ",
"# O #                   O X #   X     X .   X     4   X       X # 8       . >.O                     X             .             "
};
