/* XPM */
static char *_eff6535c1b44177e37aba108c02dfbcP0ZE7lSnTsiMRNuV[] = {
/* columns rows colors chars-per-pixel */
"64 64 2 1 ",
"  c #181B1D",
". c white",
/* pixels */
"................................................................",
"................................................................",
"................................................................",
"................................................................",
"................................................................",
"................................................................",
"................................................................",
"................................................................",
"................................................................",
"..............................           .......................",
"............................           .   .....................",
"..........................     ...       .  ....................",
".........................     .......     .  ...................",
"........................     ..........       ..................",
".......................  .  .............      .................",
"......................   . ...............   . .................",
".....................   . .................     ................",
"....................   .  ..................     ...............",
"....................   . ....................  . ...............",
"...................   .  ..................... . ...............",
"..................    . ......................    ..............",
"..................      ....................... ................",
".................   .  .........................................",
"................. . .  .........................................",
".................     ..........................................",
".................  .  ..........................................",
"................   .  ..........................................",
"................ . . ...........................................",
"................   .  ..........................................",
"................  ..  ..........................................",
"................  .   ..........................................",
"................  . . ..........................................",
"................  . . ..........................................",
"................  . . ..........................................",
"................  . .  .........................................",
"................    .. .........................................",
"................    .. .........................................",
".................   ..  ....................... ................",
".................   ... .......................  ...............",
".................    .. ......................   ...............",
"..................   ..  .....................   ...............",
"..................   ... .....................  ................",
"...................   ..  ...................   ................",
"...................   ... ..................   .................",
"....................   ... ................   ..................",
"....................    ..  ..............    ..................",
".....................   ...  ............    ...................",
".....................    ...  .........     ....................",
"......................     ..  ......      .....................",
".......................      .   .        ......................",
".........................               ........................",
"............................          ..........................",
"................................................................",
"................................................................",
"................................................................",
"................................................................",
"................................................................",
"................................................................",
"................................................................",
"................................................................",
"................................................................",
"................................................................",
"................................................................",
"................................................................"
};
