/* XPM */
static char *_ce5ac8e8a284d82b8722537a161e0d8y9G76t0Czw5E5uZr[] = {
/* columns rows colors chars-per-pixel */
"64 64 256 2 ",
"   c #0D0B03",
".  c #1C0300",
"X  c #180901",
"o  c #171705",
"O  c #260700",
"+  c #350B00",
"@  c #2A1708",
"#  c #371909",
"$  c #2D1C14",
"%  c #331C13",
"&  c #1C2604",
"*  c #2C2618",
"=  c #372517",
"-  c #302A10",
";  c #3A2922",
":  c #33342D",
">  c #3A3529",
",  c #490800",
"<  c #481705",
"1  c #581A05",
"2  c #52180D",
"3  c #681C05",
"4  c #701905",
"5  c #47230D",
"6  c #462919",
"7  c #552917",
"8  c #49331E",
"9  c #58351B",
"0  c #6A250A",
"q  c #672A17",
"w  c #742B18",
"e  c #6F3011",
"r  c #79371B",
"t  c #483627",
"y  c #4E372F",
"u  c #563827",
"i  c #673B28",
"p  c #773A27",
"a  c #6D3931",
"s  c #3A422C",
"d  c #494437",
"f  c #5A4735",
"g  c #524930",
"h  c #69432C",
"j  c #664737",
"k  c #734D34",
"l  c #784935",
"z  c #56603E",
"x  c #4B4942",
"c  c #594A44",
"v  c #5A5747",
"b  c #764D42",
"n  c #6F5147",
"m  c #685646",
"M  c #785748",
"N  c #695A53",
"B  c #57624E",
"V  c #67634A",
"C  c #74644C",
"Z  c #776758",
"A  c #716E59",
"S  c #7A7363",
"D  c #843618",
"F  c #8D3418",
"G  c #863C25",
"H  c #933E29",
"J  c #90441B",
"K  c #884627",
"L  c #8C442B",
"P  c #96482A",
"I  c #9A522C",
"U  c #884A35",
"Y  c #944C34",
"T  c #954A38",
"R  c #89543B",
"E  c #995636",
"W  c #92523C",
"Q  c #9D553C",
"!  c #AE5630",
"~  c #A65739",
"^  c #8C613E",
"/  c #A9643B",
"(  c #B9653D",
")  c #C86A3C",
"_  c #8C5045",
"`  c #895747",
"'  c #965745",
"]  c #9C5B45",
"[  c #9D5D4A",
"{  c #985D52",
"}  c #A65847",
"|  c #A45C44",
" . c #AC5C45",
".. c #B3564E",
"X. c #B35E48",
"o. c #89654B",
"O. c #9B6348",
"+. c #92724B",
"@. c #896856",
"#. c #996756",
"$. c #83755D",
"%. c #997458",
"&. c #A36145",
"*. c #AB6443",
"=. c #A96947",
"-. c #A4644B",
";. c #AC644B",
":. c #AB6A4D",
">. c #B46444",
",. c #B96745",
"<. c #B4644D",
"1. c #B26B4C",
"2. c #BC6C4B",
"3. c #AA704B",
"4. c #B8734C",
"5. c #A56552",
"6. c #A66857",
"7. c #AC6C53",
"8. c #AD6D5A",
"9. c #BA6652",
"0. c #B46C53",
"q. c #BC6B54",
"w. c #B46C5B",
"e. c #B86859",
"r. c #AA755A",
"t. c #B27256",
"y. c #BA7354",
"u. c #B4745C",
"i. c #BC745B",
"p. c #B97A58",
"a. c #BB795E",
"s. c #8D6B64",
"d. c #8A7866",
"f. c #987867",
"g. c #8C7B71",
"h. c #A86D62",
"j. c #B66F65",
"k. c #A47362",
"l. c #AA7767",
"z. c #B57463",
"x. c #BB7463",
"c. c #B47B64",
"v. c #BB7C64",
"b. c #B67569",
"n. c #B57B6B",
"m. c #BD7C6A",
"M. c #BA7D73",
"N. c #C46C4A",
"B. c #CA734D",
"V. c #D1704A",
"C. c #C26B57",
"Z. c #C57554",
"A. c #C97955",
"S. c #C4735D",
"D. c #C27A5C",
"F. c #CC7C5B",
"G. c #D47A55",
"H. c #C77764",
"J. c #C87467",
"K. c #C47C63",
"L. c #CC7B65",
"P. c #C37C6A",
"I. c #D27E67",
"U. c #C57C73",
"Y. c #8B866B",
"T. c #95846B",
"R. c #988776",
"E. c #BA8369",
"W. c #A98978",
"Q. c #BD8374",
"!. c #B18C73",
"~. c #B88878",
"^. c #A6957B",
"/. c #97A17F",
"(. c #C8845B",
"). c #D7845D",
"_. c #E28A5D",
"`. c #ED925D",
"'. c #C28265",
"]. c #C3836C",
"[. c #CB846B",
"{. c #CA8868",
"}. c #D58464",
"|. c #D4826C",
" X c #D28A6B",
".X c #DB8A69",
"XX c #D6916A",
"oX c #C58572",
"OX c #CB8472",
"+X c #C28973",
"@X c #CB8A74",
"#X c #C5887B",
"$X c #CC8C7A",
"%X c #D38B73",
"&X c #D98A76",
"*X c #D38C7B",
"=X c #C99378",
"-X c #CC927D",
";X c #DA9274",
":X c #D4937D",
">X c #DB937A",
",X c #DA987A",
"<X c #E58B66",
"1X c #E5926C",
"2X c #E38A75",
"3X c #E69679",
"4X c #F49672",
"5X c #EAA27B",
"6X c #F8A27B",
"7X c #9E8F82",
"8X c #B48F8A",
"9X c #AA9885",
"0X c #B79A87",
"qX c #B1A68D",
"wX c #ABA695",
"eX c #B8A795",
"rX c #CA8E82",
"tX c #CB9686",
"yX c #D49483",
"uX c #DB9B84",
"iX c #D89988",
"pX c #D49D93",
"aX c #E49C83",
"sX c #E89A86",
"dX c #ED9C8A",
"fX c #D9A287",
"gX c #CAA998",
"hX c #D9A696",
"jX c #D0A893",
"kX c #C4B29A",
"lX c #E8A589",
"zX c #F8A887",
"xX c #E8A896",
"cX c #F6AB94",
"vX c #F2B394",
"bX c #F8B79A",
"nX c #C9B8A5",
"mX c #D6B9A6",
"MX c #D0BBB1",
"NX c #E9B8A4",
"BX c #EDB6AE",
"VX c #F9B8A6",
"CX c #FFC39A",
"ZX c #D9C7AD",
"AX c #D1C8B3",
"SX c #D8C8B4",
"DX c #EDC8B2",
"FX c #F8C7B7",
"GX c #E7D7BB",
"HX c #DCD1C2",
"JX c #E8D7C6",
"KX c #FBD8C5",
"LX c #FAD9D2",
"PX c #F2E5CA",
"IX c #FBE5D6",
"UX c #FFF9EA",
/* pixels */
"tXtXrX#Xb.#.U.U { G v.8.[ z.l u.Q.W ].0 M.#.6.' OXU.y eX9 ~ / 0.1.v.;.|.r &.[.-.,X-.&.O.'.'.<.|.v.rXE.U W v.v.v.U ` k j _ f.M.j.",
"n.oXrX#.b.l.z._ _ h.].5.].yXO.R p u.:Xz.pXhX6.U.b.J.8 g.h S.y.t.i.i.0.%Xr <.;.i.lX3.@X'.E.p.&XH.] K w.U ' m.5.@X2 7 i 7 h.a h.yX",
"M.8X#XrXM.h.M.b.j.P.z.5.oXz.+X8.n.W :X5.xXc.pXM.rXh.= d.5 G {.0.~ 0.<.L cXD.;.t.Y '.:.{.3Xp.:.<.Z.}.I w q P.]._ _ l o.r.k.O.$XOX",
"rXpXpXhXgXM.Q.~.~.#.{ tXiXn.tXQ.tXE.c.=X#Xh.hX8.tXrXu 7Xs.<.(.| L %Xe.%X.X{.E XXp.y./ 3.p.%XQ :.>.P ,.i.0.c.E.R _ p U ^ %.O.%XH.",
"` 8Xs.n.pXtXl.l E.< a r.NXQ.#Xb.l.l.yXr.Q.rXn.M.yXpXu 7X@.0 G D. .L  .T S.;X;X4.4.(.zX5X{.:.'.t. .D.>.[.L W [ U O.r.c.-.XXt.uXlX",
"a FXBX_ l.8X#.~.hXl.~.k.#XrXVXFXp U -X+XrXb.$XpXh.{ i > f.J.{.p.~ K.<.<.q.;X(.~ {.p.XX3X1.,X| '.[ v.z.| x.;.J.U 6.1 R 1.;X%X%X>X",
"M.h.a { h.#.l E.9 U $XE.E.O.tXtXx.*X8.E.tXk.~.$X@X6.i s.#.p v.XXy.5XQ S.;X(.4.(.XX(.<.( Z.Y -.:.| ] p U.7.6.w.z.R :.u..X3X1X3Xy.",
"H.%X~ lXD.~ v.%X7.rXh.rXoX#Xf.#.j.j.h._ 8X` ~.W.%.M y g.O W.tXO.E R '.a.t..X4X5X}.1X(./ (.;.<.~ _ r.-X} S.8.' G t.t.,XaXaX,X{.p.",
". y s.y M y ; y $   o   o @   & o X @   o o   - @ o X d : g = R ` + O.r.r.T.'.+.%.%.t f % 9 +.+.%.!.n.@.o.6.U yX'.bXE.iX#Xb.` l ",
": > : ; ; : ; t t y d d c f A A c d d d x x c c N t N S R.9X8 8 = 8 # - % = - - = # $ $ = - # - % % $ ; $ = @ O = ; @ $ $ @ $ $ ",
"g.8Xg.Z g.7Xg.R.g.kXqXJXeXZXMXAXJXPXGXkXAXnXMXT.R.f Z 7XIX9XT.kX$.R.mXR.W.Y.T.g.7XS 7XT.N g.g.T.d.Z N S S m Z S 9Xy N R.R.g.N d.",
"IXmXSXLXIXLXeXc HXnXmXjX^.GX^.ZXDXGXPXT.SXZXKXqXGXPXMXDX^.W.0Xg GXeXT.mXSXnXGXUXLXHXeXJXeXqX9XSXMXMXHXJXIXeXg.R.c = g.Z 7Xc Z SX",
"d.ZXGXmXT.^.Z d.9X^./.nXg # O 2 l p tXiXhXjXjXxXxXiXvXfX@XlXlXCXvX4.5XbXvXr lX` k.s.@.~.yX{ p q 2 q e ~.#.t @ nX#.M.z.h.b.rX#X@X",
"h U ` tX~.6.f.gXmXGX+ 6.(.4.y.;.3 |.[.0.p.,X;X XI E I ).F.B.A.1X6X4X`.<X_.J (.O.3 8.yX>XA.F G.zXI.2XD [.3XeXmXmXW.sXrXb.h.Q.yX_ ",
"p U E.p n.#Xf.u AX!.3X(.lX;.G  X&XU _ O.E.O.e < w -XW 7.8.1 p lX X>X3XL.1XP 1Xn.#XNX~ [.sXG.).r -.Y t.xXiXM mXeXhX_ xXa !.a &XH.",
":X]._ ' KXQ.6 d.qXT.F.l <.L ;.E e 0.i.Q :.3Xr Y , 6.0 r G G , , (.&.).Z.XX).3XK.L | L ;.q.). XaXa.0.i.cXoXW.GXJXj ~.rXl 6.n.P.5.",
"$Xz.M.U.b.a j d.AX& [ r.E 0.t.Q | F 4X! 9.L.F.>.! 3X~ .X{.:XU  XcXL ,.,.5X,.,.A.}.1X} 0 S.N.r 7.-.a.E uXO.W.W.GXu ` k.' #XU.} @X",
"M.xX6.G _ #.u s.AXZXO. .0.0.L *.B.).K 2.F.1.N.F.zXZ.C.C.-.&.bXcXD.lX.XZ.~ K ~ / >.~ ! B.4.dX&XH.S.dX9.w.] f.R.nXl.8.3.$X@XP.iXI.",
"*X} OXb.iX~.t u AX9Xu.P S.| %X.XB.3X! Z.,.A.L.~ F.zX>XD.a.a.'.1 r 9.;XI ~ 4. X(.1.E ~ I.p.] u.:X[. .1 yX8.f eXkXT.iXu.z.aXU.6.dX",
"H.C.<.6.hXtXh m eXC R >.v.S.a. X! P ,.2./ Z.2..X2..XoXW &.e u.[.>X>XzX~ zXJ / I (.E i.R p Q.` U t.&.m.} ] j Z M ~.yX'.uXOXU.e.yX",
"S.9.X.e.@Xp j j AX%.O.q.1.'.P XX{.2.~ F.:.0.~ I Z.zXH.<.Y i.K.a.w i.*.I D.7.{.;.X.>.[.[.[.O.m.R ' 6.O.m.6.k.V 0XjX8._ xX6.' e.x.",
"9.C.9.j.[ +X@.d.SX9XfXQ ~ '.D.e J >.}.2.t.9.J.Z..XS.L E 0.t.<.L lX[.| *.| r u.:Xl e 0.L aXxXc.c.O.#.l.7.*X@.S kXtXa h.U oXW U.w.",
"&XS.S.J.w.+Xn j eXC k Y 0 0./  X5XlX>.,.:.H.C.F.I zXP r ;.i.%XG w.} U.T T 0.0.9.C.N.y.| uXr.n.+XR l R u.8.k A DXR.5 f.yXc.[ [.H.",
"w.-.6.2 n.{ y $.qXC -X3 q p {.Y '.| 7.a.r.r._ x.} ' R l E.` +X6.z.R T 5.rXz.5.r 7.O.8.iXoXM.~.l k l { O.+XZ R.f t j l.gX%.l.k.k.",
"O O . O = $ . c B c f.7 M ` 8 + O O . @ @ . . # O . # @ 6 # # # O # @ O @ + # 9 9 k # # + # O O @ X . . 6 = C R.C C s * - $ * $ ",
"t d t 6 v y s.7XwX8XIXJX7Xd.d.z Z N N c = Z m m S v m m j g m m j n f N f m j f m j C Z y t ; ; * > ; ; = o T.JXmXSX7Xs.Z s.A A ",
"_ { #.#._ ` h._ ~.FXVXcX#XVXFXKX~.#.s.~.pX8Xu 7 7 { h ` m # Z h Q.6._ p p b.n.Q.yXxXb.tXrXxXn.k.` ~.n.f.b j j M r.` u . j # = N ",
"J.xXVX*XJ.J.pX} J.dX} <.Q <.~ X.H.8.OXx.rX' e.' } ] OXU.u ZX9X'.S.|.C.I.C.dX2XD C.}  .I.cX4 H.K.S.dXcXJ.yX5.6.u.v.>X3X X3X*.e.e.",
"U.6.P.rXw.BXM.dXyXU.oX-.iXw.U p w.8.W U dXw.e.T U...U r.6 HXo.zXF.F.S.&X3XK.i.a.Y ;.w dX*X< $X6.P.U.6.K.K 1 ,XxXT cXaX[.L.sX,X0.",
"J.yXOXb._ } M.J.z.M.6.5.U z.VXoX[ m.].*XyX5.P.G G xXc.E.d A #.P F.N.H.C.H.L G X.X.S.xX} x.| Y [.lXVX-.0.;.L :.1 >X0.L ~ 3XQ dXr ",
"e.x.T b.U._ ' yXyX| ' yX].z.m.[ aX} 5.U T P.yX*X_ *Xn.~.% R.8 ,..XP &XI.I.>Xa.2X2X2X} U.G Z.).1Xp uX, cXOXK.K a.D e ;.bXK q.v.;.",
"I...I.F.! X.H I.P.iX} c.*X:Xy.[.7.j.e.e.*X] x.;.H.<.].=Xy R.Q.Z.F.2.dXOXNX>X[.9.I.&X|.~ H.>X&X0.|.q.&X,Xv.~ H sXdXI.H.H P S.dX<.",
"4 4 X...C.J.2X~ [.@Xp u.W @XY i.I.C.j.J.&X*X&X{.[.r U.O.% S 2 2.N..XH C. X~ K.D 9.S.C.|.S.Y G  . .i.zX| D 3 I.<.J.sX2Xe.L.P dXJ.",
"L.<.2X} ..C.N.H.| x.uXVXVXvX;.[.| } J.e.I.C.} 0. .L.J.iX% Y.q F.1Xy.! N.2.Y } sX<.S.S.2.S.%XL E X.C.X.K.dXG  .S.I.C.I. .P 3X.XdX",
"0.0.H.w.J.U.h.2 tX{ H.bXsXx.cX%X .~ H H J.} L.T a.0.*XxX> nXKX<X2X' q.;.Q a.9. .&Xi.I.P 9.dXQ | &.%XG ' K.Q P lXS.3X|.0.lXL 2X<X",
"K.[.<.x.P.U.[.8.P.#X[.2X>X[.[.;X0.U.J.2XS.I.|.| %XS.w.6.$ eX+.( ].Q.r {.l r -.cXG } J.S.L.1 cX[.%X0.%X&X1 T [.~ I.H X.8.<.%XH.G.",
"Y | Q 7.j.x.<.L.~ M.e..XT [.cX,X<.<.L.S.3XX.H.0.].i.x.yXd c mXlXp.k r R 3.^ E :.aXt.I.~ 9.y.[.&X3X:XcX4 X.[.[., sXT } L.H.D.4 <X",
"l.l.M.{ h.l U.l.b.uXv.].7.v.t.=X].+X, z.v.-.a.+XL.q.i.+X$ Z X j 5 8 r.=X< hXU < q h l U n.&X4 dXdX.X2.N.}.q.C.cXx.w P.zX~ dXw.*X",
"y O % y @ 6 ; Z @ o C = o g $ $     X $ .     @ a n ` n ; $ t o o   # 8 = 6 @ 6 # # < # 7 5 9 l ~.M ` f.jXh i + + b ` j 7 + u = ",
"t f f u t d v B > B 8 > * * X $ $ $ $ * - o X s d g & & : s x - - & V A Y.$.C ^.M $.S d.d.y m Z f g 8 d c t V n y b @ . % d.W.@.",
"j u 7 7 # # GXAXA j FXNX+Xb.f.#.8XW.gXUXhXmXBXVXNXvXhXQ.rXNXxXKXFXNXVXvXxX$XdXtXl 7 5 DXf.8 !.@.i ~.PXZXJX9XeX0XjXhXjXDXKXmXNXBX",
"c.1 O fXn.l GX9XkX+ I.] e.OXaXOX0.8.-.-.z.uX5.;.K.S.q.<.e.9.0.&.3.XX| aXlXP r R xXK h l.iXl.=X=XvXy. XtXJXV PXJX6.yXyX$Xe.8._ $X",
"a.t.-./ Q.R eXeXkX@ {.E.rXM.J.L.L.H.S.|.>X| K..X~ 2.i.[.p.Z.5XK.i.[.K.VX0 K.Y lX,Xt.@XvXv.oXP.q E R t.6.SXN LXq ] ,X'.*XU.x.}.1X",
"W E r.K U + ZXnX9X8 P.lXcXiXI.I.C.L.I.2X;.%XD.Z.A.Z.%X{.y.3X*.:.%XsXi.G aX;.*.E.a.:XU 0 iXP.v.uX,X(.vX#.mXc IXVXlXvXoXi.>X0.>.;X",
"=.&.r 3.U h R.kXd.k e.S.X.<.2XI.e.S.I.q.%XK.%XF.3X).%XS.D.XX~ i.aX>X| | 0.K.i.%X,X@XlX$XoX:Xq | E.v.{.iX9Xd.DX,X:.lX[.X.N.V.3XS.",
"3.P =.P 1 h UXg d.+.oX8.&XH.L.<.q.N.N.A.D.0.;.I.|.I.}.}.cXcX3X[.0.cXQ T >XbX1 NX=X X[.0.K.[.K.0.D.a. X~.s.@.^.&.@XuX].H.9. .|.X.",
"y.4.1.D m.7 kXqXs.k.b #X~.mXNXW.tXt.w.;.K.0.i.0.>X;X[.&.| D.[.q.0.aXcX X>Xz.xXq ,XD.1.7.0.[.0.@X'.;.;XE.gXmXSX;.yXxXbX0.E lX<.C.",
"4.(.XX&.=Xo.9X^.g.% b rXM.hXh.sXU.E.6.c.;.| 1.O.E.lX-X5.E.@XE.%X{. X%XQ K.oXv.l.O.;X3XL >XaXvX|.q.;.O.6.T.gX9X7.[.FXyXa.bX{.sXq.",
">.2.,.=.R k SXeXAXM ` |.%XK.L.|.L.I.q.q.L.I.S.@Xu.-.{.7.0.].[.K.a.%X%X%Xi.1.;X<.y.[.OX| w.K.i.t.0.,X0.x.d.eXAXO.aXD.*X%X;.,X[., ",
"Z.2.,.4.K R AXd.qXf.i K.K.a. .S.H.S.<.L.K.i. X:.a.'.n.@Xm.m.@Xu.p.u.K.%XbX4.4.%XK.L oX=X[ %X0.K.D.K.[.v.i ZXAX].iXn.aX>X0.;.:XdX",
"4.,.Z./ =.k eXT.qXt h w.K.| S.I.q.|.C.D.t.u.fX{.u.P.].oXh.#.' r.~.{.t.7.%X4.(.[.| ;.hX+XE.0 H.w.0.H.i.*Xu s.PX] l a { G K.L.K.[.",
"Q t.Y E O.p z R.C 8 M 7 +XoXa.0.i.h.n.#X+X-X+Xl.-XE.l.#.` #.W.!.hX%.tX~.hXuX3.=X-.=Xc.r.iX8XhXiXL.0.<.[ g C GX!.sX5.b.$Xz.z.6.$X",
"= = + # # g S m C A 9Xf t f 6 6 6 t t @ @ # - @ = 6 % t = % = = = = % @ @ X . % $ = 6 u 6 @ @ 5 6 n . = Z Y.z o.6 # u 6 @ # @ - ",
"AXd > C t N C 9Xj h W.O JXIXd.9X$./.v A $.$.Y.A B S d.Z V f A d.v B v V V x x v V V C m S $.$.$.m Z A Y.R.C SXPXSXY.f g 8 V N c ",
"J J / / XX( 6X6XCXbXCXVXjXc.NX7 9 v.< < < =XE.0 O.K u DXGXJXAXkX0X@.!.kXj 0XM h 9 u 9 7 l i FXh < l.0X#.i o.5 %.9 k k o.k i i a ",
"_.1X6X).).).XXr y.2.F N.N.zXy.:.=.3 {.(.zX4X(.4.4.e 3 5XC SXd.ZXO.C.VX[.[.t.p.OXY @XS.5XzX X>.C.w.H.I.} D.,.Z.q.L 5X|.3X>.1. .|.",
"(.=.5XK I / e 0 4.Z.).I X.| ! G.B.B.<X6X) 6X).).E Z.3X(.] ` JXIXw.r.P.8.' m.W -.b.OXP.@Xj.9.I.H.C.S.~ K.*.uXw.$X0.H.] ;. .;. .S.",
"3X/ I 4.XX5Xe / p.~ B.D =.3.).,.4XV.G.1XvX1X( 1.r y.(.XXU hXnXZXx.z.z.E.uX5.:Xm.1 uXOXcX<. .q.<.~ S.T %X;.iXz.P.P.w.*X0.[.] 9.X.",
"(.=.( / CX;XK 3XD.3XZ..X6XG.N.! <X6X4X! 4.(.4.(.( / 5XlX&.%.JX9Xw.n.e.v.8.v.z.@XuXz.uXL.x.X.C.2XH.&X<.i.lXw.].p *X*X;.>Xi.H.H.C.",
"<X(.(.4./ (.4.(.XX).! V.) ! V.4XV._.A.!.1X5Xp.4.*./ >.v.,XR ^.+.OXk.a.E.,X{.t.yXOX$X1 p q e Z.N.B.~ zXK.K.z.iXxXu.W x.2.A.>.B.( ",
").(.( XXD ! / I (.XXV.`.`.4X(.B.! (.3.E =.*./ {./ 4.F.a. X%.GXC yXT.E.~.l.u.,X$X:Xm.'.D.S.*.! G.1X~ A.K.&.:X@Xm.yX6.m.! ,.~ B.B.",
"1X_.CX4X_.6X4./ 4.A.G.) ( B.( e ! ( F 4XZ.zX4.*.3.E 2.K. X5.DX^.r.h ^.M 0X'.a.u.-.5.N.! F A.J.I.~ 2XZ.0.Q w 1 r VXW OXH F.2.B.B.",
"1.:.2.4.I / ! `.4XB.I 0 J I ! / }._._.V.4.4.K 1.;.%Xp.>.{.r.kX0XO C t 8 R.!.k p.,X@XJ.Q ~ ( A.G.V.J G.Z.3XyXm.w.>X&XC.N.I.N.( ( ",
"L Y | 4.(./ 6X)._.B.( ( )._.=./ Z.}.1XP I D.4.w 0.0.4.(.~ l.0XFX@.u j m k %.r.O.-.H.C.L.I.N.N.G.( ( ! ~ A.m.m.v.-.2XN.N.X.G._.N."
};
