/* XPM */
static char *a5855ab1135d466ce8e220fbbcb29040uyoeuvHAiCzXmlX3[] = {
/* columns rows colors chars-per-pixel */
"64 64 234 2 ",
"   c None",
".  c #040C05",
"X  c #090D06",
"o  c #060C08",
"O  c #080E09",
"+  c #040603",
"@  c #041305",
"#  c #091507",
"$  c #041B05",
"%  c #0A1C05",
"&  c #061409",
"*  c #09150A",
"=  c #061B09",
"-  c #091C0B",
";  c #111B03",
":  c #0A1D11",
">  c #181B1D",
",  c #032305",
"<  c #0A2305",
"1  c #032B05",
"2  c #0A2D06",
"3  c #05230B",
"4  c #09230C",
"5  c #052B0B",
"6  c #092B0B",
"7  c #15270A",
"8  c #11290F",
"9  c #033304",
"0  c #0A3304",
"q  c #043C04",
"w  c #05330A",
"e  c #0A330C",
"r  c #053C09",
"t  c #0A3B0B",
"y  c #0C3B07",
"u  c #123607",
"i  c #032410",
"p  c #0A2511",
"a  c #052C11",
"s  c #0A2B11",
"d  c #102F10",
"f  c #0A3411",
"g  c #0A3A14",
"h  c #063A15",
"j  c #113812",
"k  c #024303",
"l  c #0B4403",
"z  c #034C03",
"x  c #0A4C03",
"c  c #05430B",
"v  c #0A420B",
"b  c #034B09",
"n  c #094C0D",
"m  c #114809",
"M  c #025402",
"N  c #0A5303",
"B  c #035C04",
"V  c #095B06",
"C  c #04540A",
"Z  c #0C530B",
"A  c #055B0B",
"S  c #0B5D0A",
"D  c #105504",
"F  c #0A4513",
"G  c #064B11",
"H  c #0B4912",
"J  c #0B4B19",
"K  c #054414",
"L  c #124313",
"P  c #114F1E",
"I  c #045412",
"U  c #0B5214",
"Y  c #0C5812",
"T  c #0D541A",
"R  c #0B5D1B",
"E  c #105B15",
"W  c #15591A",
"Q  c #036405",
"!  c #036D03",
"~  c #046509",
"^  c #036B0A",
"/  c #096A0B",
"(  c #0D6706",
")  c #037605",
"_  c #027B01",
"`  c #0B7806",
"'  c #07780B",
"]  c #0B6314",
"[  c #0B641C",
"{  c #0E6B1D",
"}  c #096A14",
"|  c #12661C",
" . c #0A7C17",
".. c #0D741D",
"X. c #0C7C1D",
"o. c #067414",
"O. c #117C1B",
"+. c #11751A",
"@. c #0E6B20",
"#. c #0D7422",
"$. c #0E7E23",
"%. c #077924",
"&. c #127423",
"*. c #127E26",
"=. c #15772A",
"-. c #156520",
";. c #028403",
":. c #058A04",
">. c #068406",
",. c #059806",
"<. c #058719",
"1. c #0C821D",
"2. c #0C891A",
"3. c #12851C",
"4. c #168E1D",
"5. c #0B981A",
"6. c #11941D",
"7. c #0CA01E",
"8. c #0EA717",
"9. c #0D8D23",
"0. c #0E8426",
"q. c #128224",
"w. c #158528",
"e. c #128925",
"r. c #0D9226",
"t. c #069429",
"y. c #149521",
"u. c #119525",
"i. c #139D25",
"p. c #139C29",
"a. c #15922D",
"s. c #149E33",
"d. c #168E34",
"f. c #0DA426",
"g. c #0EA32B",
"h. c #0EAB2C",
"j. c #0AAD26",
"k. c #14A52C",
"l. c #14AC2B",
"z. c #19AC2B",
"x. c #17A224",
"c. c #0DBA2C",
"v. c #0AB82D",
"b. c #14B32D",
"n. c #1AB22C",
"m. c #16B92F",
"M. c #14A231",
"N. c #13AB32",
"B. c #1AAC37",
"V. c #19AD3B",
"C. c #18A330",
"Z. c #07B230",
"A. c #14B534",
"S. c #1AB433",
"D. c #12BC32",
"F. c #1CBF3B",
"G. c #18B938",
"H. c #25BA3D",
"J. c #11C52B",
"K. c #0AC631",
"L. c #13C234",
"P. c #1BC234",
"I. c #15CB33",
"U. c #1BCA35",
"Y. c #15C43B",
"T. c #1AC43A",
"R. c #14CB3A",
"E. c #1BCC3C",
"W. c #14D43D",
"Q. c #1BD43E",
"!. c #1DDB3E",
"~. c #16D337",
"^. c #20CC3C",
"/. c #21D43C",
"(. c #1ABC41",
"). c #23BF42",
"_. c #14CA42",
"`. c #1DCA43",
"'. c #19CB48",
"]. c #0FDA43",
"[. c #1BD443",
"{. c #1DDC45",
"}. c #19D949",
"|. c #24C948",
" X c #21D748",
".X c #30D94C",
"XX c #25D654",
"oX c #28DD5A",
"OX c #1CE544",
"+X c #1BEB46",
"@X c #1CE44B",
"#X c #14EA4B",
"$X c #1CEB4B",
"%X c #16E744",
"&X c #15EE51",
"*X c #1DED52",
"=X c #1FE550",
"-X c #1BF353",
";X c #1CFC5B",
":X c #1AF55D",
">X c #23E34B",
",X c #21EC4E",
"<X c #27E448",
"1X c #23E554",
"2X c #23ED54",
"3X c #25E658",
"4X c #23EC5B",
"5X c #2AE853",
"6X c #32E65F",
"7X c #22F255",
"8X c #23F45C",
"9X c #24F95D",
"0X c #2AFB5A",
"qX c #1DFA63",
"wX c #1DF967",
"eX c #28EA60",
"rX c #24F363",
"tX c #2DF364",
"yX c #25FA64",
"uX c #2AFA67",
"iX c #24FD6C",
"pX c #2AFD6D",
"aX c #29F76A",
"sX c #32FC6C",
"dX c #26FE74",
"fX c #2AFE75",
"gX c #24FF7C",
"hX c #2CFE7C",
"jX c #23F673",
"kX c #30FE76",
"lX c #31FD7C",
"zX c #38FB7B",
"xX c #2DFD81",
"cX c #34FF83",
/* pixels */
"          , { { { { { { 1 M 6._ { j.6.b $ @ , { 9 $ & . @ @ { @ . . @ , 1 , $ $ 9 9 1 9 $ $ 9 9 9 , $ # # 9 $ & @ - @           ",
"        & # 6 { y.{ z 9 # 1 y.y.c.yXy.b $ 1 v 6.r 6 $ . @ 4 6.@ . o # , c 1 $ @ 3 9 1 1 $ $ 9 9 u., @ $ 0 6.3 # @ , 9 $         ",
"      & * @ @ , 6 6 5 3 @ $ c Y.iX|.9 6 3 E.!.!.n.m . $ 1 < 6.$ @ $ 5 r 6.9 = # 5 6 u.1 @ @ 5 r D.$ @ $.$ 6.= * w.9 9 $ ,       ",
"  * & - - # . & # $ 4 3 . @ 5 G r e 6 6 = 1 | T.[.^.% X q.y.2.E $ 3 5 z <Xq < d 5 2 <X1 5 4 , t b.$ @ @ = r.= @ G., 1 $ 3 9 9   ",
"  & - 4 - 4 - O * - 3 = . @ - 6 = = a 4 - = $ 5 1 % $ @ * 3 1 {  .@ @X>X>XOX@X1 c t {.C 1 , r b D.w 4 @ 3 p.4 $ $ , k.@ $ 9 9   ",
". @ @ @ . @ . . & - i 3 = 4 - = = = i - $ # o = 4 - @ @ @ 3 @ @ $ = t G 0 E `.1 1X@X@X$X5X4 ] M L.5 9 , 2 l.f - $ 5 N.= $ , 9 2 ",
". . . . . . . . . . @ @ @ & = $ $ = = @ - 4 * 4 4 4 . & @ = . . & * = 6 = # , 3 e 3 9 c 1 , (.{.{.].1 f.s.k.c 6 $ K N.w 5 , 9 9 ",
"@ . o @ . . . . . . @ . . . & @ . $ * & $ $ @ . $ - @ & = 3 3 $ & i $ 3 - @ - - s - $ w = $ w $ r 1 2 9 U O.p.5 P.I.U.G.i A 9 q ",
"& @ o @ o . . . . @ & . o . * & @ @ @ @ * * o . * * @ . . @ @ . & = @ $ p @ p p s 4 @ - * * 4 $ a $ 4 = 4 , = 6 , 2 4 r , k.9 1 ",
"9 & . . . . . o . . @ @ . . @ & # @ o o @ & o & * * o . . . . . & & @ @ * @ @ * & @ . @ - p $ $ - 4 a @ & 6 = s # 5 = 4 $ $ 1 , ",
"9 9 @ @ @ @ . @ @ o @ . . . o . # . . . . @ * & @ . & o . @ . . @ * & - * o . @ & X . @ @ @ @ @ @ @ @ . . = s & @ 4 4 4 @ @ $ @ ",
"9 @.@ @ . @ . @ i 4 @ . . . @ @ &.$ O & @ . & O O @ . . . @ # & . & & $ & @ # # * & @ O @ @ . . + . @ . . @ * * @ @ @ @ . @ @ - ",
"9 { $ . . @ - 4 4 4 @ . + . * 0.9.< @ . @ $ , h.= & & @ - $ F $ @ . - < < $ - # * * - $ @ o @ . . . @ . o & & * o . . . . o . @ ",
"9 { 6 4 - @ 4 & p 4 = $ . @ 0.9.9., . . @ @ x.j.< 4 & $ 5 { %X, @ = w aXyXb 1 4 3 5 1 = & o . . . . @ & @ * & @ @ . & @ @ . . o ",
"9 { 5 @ @ 4 o @ 6 h $ 4 4 @ $ $ p.0 = & $ g.k v.5 * $ @ .X+XOX1 @ 1 iXtXN uXv w q.3X2X#X, @ $ @ F . @ @ @ = @ . @ & @ @ @ . @ @ ",
"9 D.3 @ @ 3 # o g f @ @ : @ & e r., 4 # # @ 9 h.r $ @ @ s.I $X2 , 9 qXV b [.V.k -Xq v ,X, $ 2 #.F $ @ @ G { @ . @ # @.$ # $ = & ",
"9 D.1 $ @ 4 4 $ F 5 - @ 3 $ $ 2 9., - 3 @ 3 = l.1 a # 4 , w OXw , k yXA r Z 9XV ,Xr 9 5Xc 0 ..w F = @ W c { @ @ } V.&.# = , r , ",
"9 Y.9 4 @ 5 4 $ F e $ $ 4 3 , r r.1 $ p # 1 , l.2 h = 4 , 9 $Xr , c qXx q x 9X~ ,Xw 9 [.q.9 $ 6 T = 4 6 $ O.p & Z.4 +.$ & L.r > ",
"9 { { _.- 5 w a J g f w 3 , c I 6.k , f 3 9 2 c.9 y < 1 1 r OXb 1 k tXQ z 9.8XM 7Xy k @Xn w $ 5 U @ = $ < #.# : # , &.# @ 4 r > ",
"9 { H w = 4 3 s g g f h 3 5 r.g.r.r.t.=.- n.z.l.l.A.< 5 {.c.OXY 9 k uX|.B yX~ b &Xc z 2Xr w , 9 I 3 3 4 6 ..- 6 = 1 #.$ $ , r > ",
"$ @ s a 4 = @ * * 4 a 5 $ # , , 6 w g * $ 5 h 5 f 5 - 9 B.'.OX#XOX0 b iXyX4X0 9 C 2X2X2Xw w =.{ 1.n w r t $.5 t 3 9 0., % , q 1 ",
"@ @ * & @ @ & * . . @ = @ @ - @ $ = = - # @ p 6 4 - $ $ w r 9 , 3 5 e v b 5 5 6 0 < c j , 3 U [ e.=.a $.X.e.X.a N.z.A.h.$ c.r r ",
"@ . $ @ . @ $ & @ @ @ = @ @ * = @ $ = & @ @ * - @ * @ . @ @ @ @ $ @ @ $ $ & @ & # $ % 6 4 - 6 = 5 6 6 3 , w 6 3 4 , , 3 $ , 2 5 ",
"@ . & & . @ @ * @ @ @ = @ . * @ . @ & @ . @ . # o @ @ . @ @ . . . # @ @ # & @ - & @ - 3 * $ = - - @ = = - - # - $ = @ @ $ @ $ $ ",
"* & & & @ @ o o & o * & . . @ & $ & . o o @ @ @ O o @ o . . @ o . * $ & & & * * * & * - & & = # * @ $ = $ = # * # $ @ & $ . @ $ ",
"& . o & . @ . . @ @ & @ . + . @ & & o o . # O @ * & * * @ @ @ & . * & * o o & & & O . & & & @ . & @ @ o . = & & @ # * * & . @ & ",
"@ . o . . . . . . . o . . + O . & . o O . . . . o @ o o . . . . . + . @ o o o & X O @ . @ & . @ . @ @ . . @ - o . @ * & @ . & & ",
"= $ . . . . . . . . @ . . . . @ @ @ . o . . . . . . o + + + . . + o . . o . o . . . . . . . @ @ @ @ @ o @ = & @ o @ . @ o o o & ",
"b b , $ . @ $ @ = U @ @ @ @ 1 1 k , $ # @ @ @ @ . $ @ . . . @ @ . . @ # & @ . @ & # # # @ 3 e k r 1 , , w t < & # # & & $ $ & $ ",
"$ b S.6 @ @ # # l.N.= @ @ , >X*X*X-X1 $ @ @ = F.% * # o @ , U # . @ $ 3 [ = @ $ - - x.$ , v oXxXgXb q b pXiXx 3 3 f q.= = 3 W.- ",
"@ 9 :XC = - d.n.c.m.- @ $ q $Xl l XX-X1 4 w.G.P.2 4 # * R | T * @ : P *.{ $ * i @.i.z.6 w V hX;.3XpX! pXD ` :Xt N.{.#.e 6 _._.t ",
"@ c 8X5X1 3 N.U m.b.= # , '.&Xq q q -Xe 3 c.5 P.5 - * - J < U & @ - { t { = * - f.4 k.6 r ` aX) >.hX;.iXQ ^ fXl W.T X.t 6 r.r > ",
"@ @ 7X7X, $ $ $ b.l.$ @ , 4X*X1 1 9 -X9 = @ % D.5 % . . O - G . . . - 4 [ @ @ @ $ $ k.% q A.}.~ ! xX;.pXN B pXz q n  .t , 9 = > ",
"$ # 7X8X1 @ @ $ n.b.5 $ 1 *X$X1 1 q *Xt = $ 3 D.5 = & @ $ 6 I @ . @ , w { $ @ $ 3 % f., k f.2X! _ lX:.dXB ! pXl 9 I 1.r , r r > ",
"@ b 8X-X1 = $ , c.m.w , < =X-Xq q z 2X9 , , e U.r 3 = - - 6 [ $ @ = 3 w ..$ = 3 3 = h.w y / fX;. XiX_ pX( >.8Xc w [ 1.0 6 r r 3 ",
"b 9 0Xz.1 $ % 5 v.z.1 1 , q *Xx b {.&X% , 3 9 J.k 6 : i 3 , @.6 < 2 c T w.E @.5 N.k.k.b.b.M fXfXhXB n p.fXfXu e [.[.[.Q.1 r y r ",
"$ 9 ,X9 4 , Z.b.c.b.b.b.3 $ $X,X$X5X6 3 @ b.m.G.D.F.1 # H G U J J = T T H e 6 $ 5 % 3 3 , w c z k w 1 1 e t , = , , $ = < % % , ",
"@ -X6 , = $ $.#.] I r t = $ 3 9 c 2 $ & $ @ - 1 $ $ 4 & . @ @ $ $ * @ & & @ @ # & @ @ @ @ = $ 3 = = = $ 4 3 - - $ = $ = @ $ $ = ",
"$ , @ # * = = * # @ & = @ . @ @ = $ . @ @ @ * & # & - $ @ @ @ @ . & @ $ * @ @ @ & $ @ & # # @ $ @ - # * @ - $ * . # * @ . @ @ @ ",
"$ @ @ @ & $ $ $ $ @ $ = @ . @ @ & @ . @ & . $ $ @ & @ @ @ @ @ @ & * * * & . & = * @ . @ . @ @ . . @ @ . X @ & O o @ @ . . . . . ",
"= $ & & - @ @ * * = * $ o . & . @ @ . o . @ o @ @ @ o . o . . . . o @ @ o O & . . . . . . + . + + . . . X & @ . . & . @ o . @ @ ",
"& @ & @ . . O . o . $ . o + o . . o . O o @ o o o . o . . + . . o . . o o X O O @ O o @ . . . . + + . + . @ # . . - 4 & @ 4 e $ ",
". . . . . . . + . . . . + . + + . . + o o . o o o o . . . . . . . . . @ . . @ * - & # # 4 4 @ @ @ $ @ @ # 3 $ = = 5 $ 4 , r r r ",
". . . X . . o o . . . . + + o . . . + o . . . @ @ @ @ # 3 5 , @ . = 4 4 - $ = = $ 5 $ 5 # $ 3 - 1 $ # @ 5 '.% - 5 %.H w w 4Xr , ",
"o . . . o @ @ . . @ @ = . . @ $ , $ . @ & $ 9 c 1 < = 4 1 w L 1 3 3 = 3 >X, 4 @ $ 1 E.5 # # 5 N.e = $ 5 Q.I.= 4 _.m.n r { I.3 , ",
"# . @ @ = @ = = , $ 3 $ @ $ 1 q z k , = , q O.dX .r , e k 5X7XrX< 5 6 b 5X0 1 - % ~.I.t @ @ n.<.2 3 , W.^ ~.6 1 p.] Z v G.p.3 , ",
"$ = 3 - = $ 1 k 4X1Xv 1 $ 1 <.dXgXhXM q l XXdX8.cXgXx G $Xk M -Xq 9 $X>X@X0 e - K.h K.9 $ $ 1 +.w 3 , 4 } ~.t , , #.] q Y.i., , ",
"@ b 3 @ 3 , N.wX9X;X;Xl 1 x cXz._ uXhXM Q hX_ >.c.hX! ~ *Xq b 2Xa.t 4Xy OX9 5 4 1 c U.t $ 3 , ..c 2 5 6 ] W.e 4 , [ b 9 3.R.v 3 ",
"$ 9 , @ 3 r 9X2.z M qX=XM D.fX! B _ dX>.,.zX^ ~ ;.hX;.U.8Xc b  X}.c t n OX9 5 w w 6 I.5 4 = $ +.h = $ , / ^.1 , 9 | 2.7.7 ,Xk 3 ",
"$ 9 1 $ w ! yXx 9 r 9X9X! pXfXz b ! fX,.I.zX! ~ >.hX>.E.-XC n @X|.5 t k OX9 , = < < I.5 3 $ % O.q w , H.[.{.E.5 E.Y.B.w., $ 9 1 ",
"$ $ , $ r !.uXk 1 r yXyX_ fXhXB x ! dX,.J.hX' Q ;.hX' ! *Xx r *X2 , 1 r OXq 1 3 a.`.R.E.z.3 N.k.M.q.$ < 3 1 5 3 = , 3 $ @ @ $ = ",
"# 9 9 , v @X;Xb 0 b pX;X;.pXdXQ B _ jX` :.lX;.` A.fXS g 2Xz z 7Xw ; {.%XOX}.{.4 T.M.n 3 $ $ $ $ = = $ # $ = 3 & # # & * @ . o @ ",
"$ 9 9 4 1 j.9XN q x yX4Xb 5.fX>.>.rXdXZ B kXhX6XhX~ t , t.:X=X$ $ @ , 5 1 , 7 , 4 i = = @ & @ @ # @ @ . . . @ o @ o . . . . . . ",
"$ @ 9 , < z uX7.z B pXz 9 x gXdXhXhXz w w S zXdXQ y = @ , 5 1 , @ = $ , - $ $ = & * & @ . . . . . . . . o @ . . o * - @ . . $ . ",
"@ b 5.F.3 9 tXyXyXrX1.1 $ , q u.<.z , $ = 2 r r 2 , @ $ @ @ $ @ @ o @ @ . o . . . o . @ . . . . . = $ o @ - - @ @ - @ = @ @ & @ ",
"$ $ *X1X3 $ 1 z o.q 9 $ @ @ 1 9 9 1 @ $ @ $ - = & # @ . . . . . + o @ @ o . . o @ o o @ - - . @ - . = @ - = = = = $ @ 3 @ @ 3 @ ",
"@ 1 5 $ $ @ = = 3 = = $ . . & & = @ . o . . . + . @ . o . . . . . + @ : o o @ * = o . 4 @ $ 3 @ = @ 3 = t , = 3 3 $ , 5 * # c.$ ",
"$ $ $ @ @ @ @ @ @ # @ @ . . . . . . . . . . + o o . . . . @ . . + . & @ o o : 4 3 = $ i @ $ 9 6 2 $ 3 1 |.).5 5 5 Y.2 4 $ M.A.9 ",
"@ . . . + . . o . + @ o o . . . @ @ O . @ @ : * * & . . # @ @ . . = $ = @ @ = - t 5 9 c = 3 ] qX:X0 r :X~ '.3.2 K.4.t = $ 9 b.1 ",
"  . . . . . @ o . . & $ . . . . 4 - * * o @ @ @ - i = @ @ 3 $ @ @ @ = 3 - @ @ , n pXdXoXq w yXz rXb.C *Xy M *X0 n b 2 $ @ $ 3   ",
"  . . & - @ & . . - = = * . @ - @ @ = 4 @ $ @ @ @ p & & $ 0 1 $ @ # 1 r OX1 $ 9 kX6.( pX^ ' R.k 1.b V b b k -X5 3 b 1 $ $ $ ,   ",
"      = * = @ . - - - $ 4 = @ 3 @ @ @ a $ , @ @ @ a & , 6 $X2Xb , = r -Xb 9 , C = / Q , ;.b ' k M b Q b 3 q 2X, , b 2 = $       ",
"        @ 4 4 $ 4 3 @ @ i 4 = 4 @ @ @ : $ 5 1 b 3 1 3 , k / M k , , b o.k , 3 M % , M = ' b  .< / , M < , M r., , , b b         ",
"          4 5 # a 4 @ @ : - @ i b w # 4 $ 1 b b c 5 , , k b A k 3 , , k k , , A , = , 3 b = 3 < = = k , = , 3 5 , 3 ,           "
};
