/* XPM */
static char *_b96753c31f04d21afbb7bb033d15cdeEL3WlG00H4lYojC3[] = {
/* columns rows colors chars-per-pixel */
"64 64 73 1 ",
"  c #010000",
". c #040301",
"X c #020403",
"o c #050402",
"O c #040603",
"+ c #000007",
"@ c #070004",
"# c #040006",
"$ c #000405",
"% c #040605",
"& c #060606",
"* c #000A00",
"= c #010D03",
"- c #060807",
"; c #0F0800",
": c #090806",
"> c #000009",
", c #03030B",
"< c #06030A",
"1 c #030409",
"2 c #060608",
"3 c #05060B",
"4 c #01010D",
"5 c #06000E",
"6 c #06050D",
"7 c #090408",
"8 c #09040A",
"9 c #08070C",
"0 c #0E040C",
"q c #040A08",
"w c #07080A",
"e c #060A0B",
"r c #090909",
"t c #0B0A08",
"y c #090B0A",
"u c #0C0B09",
"i c #090A0C",
"p c #0B0D0C",
"a c gray5",
"s c #0C0C0E",
"d c #0E0E0E",
"f c gray6",
"g c #12070F",
"h c #0C0614",
"j c #0A0A12",
"k c #0D0E10",
"l c #080814",
"z c #0E0816",
"x c #0E0D15",
"c c #140E1C",
"v c #0F1014",
"b c #101010",
"n c #101211",
"m c #131313",
"M c gray8",
"N c #151515",
"B c gray9",
"V c #161719",
"C c gray10",
"Z c #1A1A1C",
"A c gray11",
"S c #1C1D1F",
"D c #151521",
"F c #171723",
"G c #1E1E26",
"H c #202020",
"J c #282828",
"K c #2A2A2A",
"L c #2C2C2C",
"P c #2C2C2E",
"I c #2F2F2F",
"U c #333534",
"Y c #343537",
/* pixels */
"    @..@@@     >++aa    rrM++MM      $ $    A&$ :w      ar     y",
"    @..@@@     >++aaX   rr++++M.  $    $    A$&or&  $   rr     u",
"oo.....;@@  r   ++r:M-r&M+++++I&     MM.$&  o   :w    a         ",
"oo.....;@@  7   +>:7Mw&&MMKK+++      MM &&X +   w             o ",
" ...70g.##     f  vf X $    r+>n    ara& X $$$                  ",
"88#.#..@gg&&      an&        aa:    arr               &      yy ",
"87.#.@.@gg&&      na&        aar    r:r              &$      ur ",
"##<#hzz555XX a    &Xw    $   --$  7$&#o$                    mo  ",
"+#+#ccc>85              $&    &  $rw    $o&&       w   &X   H   ",
".#.+hcc<5>              &- $ & $  w:    o&&+$X             fH   ",
"       +r9      o$   &o o+        o$$     o          $     &M  o",
"       +6i ++L >+$   $& Xo $      -o&      &           w  $oM   ",
"+o X    ii   n +> -- w& &&&&  &   o$B::          -    m   n     ",
"XXX X**X X $   a  &&    :r&& &$o  &$Mrw   &$   $ X    &      X  ",
"XX XX** XX        $&    wr&& $&$$ &&Cwr   $      X   $     & X  ",
"o*X X*XXXX   &-    X    &&          o   X &o              nn   :",
" +++ +  $ w:   X     $&M$    && X   X X X X X X            +   n",
"+  ++++$ +rwX        &&M     &&  X                             n",
" ++ +++ & aarX    $&   a  wrr   -&    X   X                  $&M",
"+  +.++ > aar $   o    a  rrp   &    X   X   X X           + o#M",
".+ +  . X XX2o&   &$$  -   $          X   X  X            + >-&$",
"+ +..    X   X&        &                                        ",
" +++ .       $$X       $          $ X X X                  +    ",
".+ +..... aa         &&   &2       X       X$                   ",
"+ +.......K+a   &$   $o  +oX      &     $  X   X               &",
" + +.....+++++  &&   $$o  X    m   & $ X    $                  $",
"####.....+HH>   o&     o X    ao  $ $ + X    + $                ",
" .+......++Hp   $$X    &$    an$   X + $+                       ",
"##.#......>> XX        $    -  &o$  + >     >                   ",
" ++ #.#... &      rr              X +aji                 X      ",
"+++++. .          rr                +ja6      2  $+     $  $    ",
"+ 8<098.              $     $$&    .+ ++     +    +             ",
" ++ ++       &&     $ X             >+++ ++ >+    +   $      &&&",
"++ +   +     o$     &        X      >+>$ + +r    +$          $.X",
"+ >&+ 6        $    &               >69    ++i6+ +&$ &&     X +o",
"++w#+ 2   va        &               56     >+8i+  &  &&      .X&",
"&1$2           &  $&-     $         >+              22      &   ",
" +2>yq   i  &       $        &$:rrww+       2++   +  +          ",
"++11w$q& p  &       $     X  $Xww:&&+         >++ ++ $          ",
"    XXXX *                 $   -&-&22   >    >22   +            ",
"w1$$X X=== o &&$    $   &                 ++x + $ +    X $ X    ",
"1q$$XXX*==o$ &&     o   $ &          +>j>>++x+++++ +    X XX    ",
"        &&            +        & X  +w2 AGnnX  -       ++$+  +  ",
"        $&            X        $$$   21 AAnn   - X  $   X  +   +",
"    $&&     o&&& X    X &&&&         wwwYYLLyXX         2&w2$&$&",
"-w X o$r    &arr&X   XX&rrrr$      &+22+vp$w  XX X   w   +  + + ",
"-&    .9    +upw &   $ &rrur&     $  22 wp11+XXX  X  ww  + + +  ",
"&&      o$   &&&        &&&&$     &X $1 +    XX XXXX  +  $rii22$",
" .&&&&&                     X $         $+22 +$ ww       w    + ",
" $&&$&&  $                    o     ++$+$$2& &+ ww+    1-1+ +   ",
"rr      r&Xo      XX         $X     $      + $$++      ++  pVww$",
"ir      :wo+           X     X      $ +  +  +$$    +$1&$X  >+ww#",
"&&  n>++  o$      +                &X  p&&xv&1+ ++$12+  w U>+LIZ",
"  ar >++     $XX                w      $ +ww+>++ ++++ +   -&pip#",
"$ aa +++       X                -         i6>  +++ + + ++ &$pii&",
"    r+++> && &&&rp    o& X  w           + + 62>>++1>1++$    &  >",
"     +++  o&           $    &  X        1$  ++++>>42+++++   X+X ",
"     X++  $            &    & &        M $  ++>>>>64 +        + ",
"w&X    +>     r &      $  au   $    w  i   +++F>>614+++rii XX   ",
"&& $    +        X     &  aa$  & X  -  i   >+FF>446>++>rwpX  X+ ",
"-r$&   X+$      rr&&      rr    wr&-y  x  G>>FF>>424+>2xwpX  + $",
"     $$ +>ry   w       X      C    X *X + jj>lj66144++>$       &",
"          ir   -       o       X   o Xo  >++++l44144+++$>    + 2",
"     &&o  rr   n-wrr  +paa        --X-w  +++++>24444++++  X m22k"
};
