/* XPM */
static char *_58a7804bb934cb299557b2c03a80881sbCu6ayVkrJ5y7M9[] = {
/* columns rows colors chars-per-pixel */
"64 64 248 2 ",
"   c None",
".  c #1B150D",
"X  c #1C180D",
"o  c #151615",
"O  c #1B1613",
"+  c #161915",
"@  c #191915",
"#  c #1A171A",
"$  c #16191A",
"%  c #181819",
"&  c #16171A",
"*  c #06171F",
"=  c #23150E",
"-  c #27180B",
";  c #261913",
":  c #30140E",
">  c #322819",
",  c #393117",
"<  c #282416",
"1  c #0C1927",
"2  c #161B23",
"3  c #1A1C23",
"4  c #141A26",
"5  c #0C1E33",
"6  c #291D24",
"7  c #1D2229",
"8  c #182739",
"9  c #0A2438",
"0  c #262629",
"q  c #312922",
"w  c #272C38",
"e  c #2B3139",
"r  c #37353A",
"t  c #3B3325",
"y  c #1B201C",
"u  c #4A3210",
"i  c #592B29",
"p  c #473827",
"a  c #503131",
"s  c #672329",
"d  c #763737",
"f  c #663234",
"g  c #431A12",
"h  c #2E5B29",
"j  c #2B5A22",
"k  c #56460E",
"l  c #6A5204",
"z  c #746514",
"x  c #504A30",
"c  c #695331",
"v  c #756D2B",
"b  c #4A681E",
"n  c #132F4E",
"m  c #2D3543",
"M  c #2C3A4C",
"N  c #26354A",
"B  c #343945",
"V  c #333B4D",
"C  c #373848",
"Z  c #2B3B53",
"A  c #273C59",
"S  c #343D53",
"D  c #3C3D5C",
"F  c #2B2F4A",
"G  c #223A63",
"H  c #123763",
"J  c #4A3744",
"K  c #48374B",
"L  c #713D49",
"P  c #354356",
"I  c #36464F",
"U  c #274666",
"Y  c #385476",
"T  c #314A6C",
"R  c #514C51",
"E  c #6E544F",
"W  c #5A694E",
"Q  c #70684E",
"!  c #535166",
"~  c #6D5367",
"^  c #556B73",
"/  c #746C6A",
"(  c #676779",
")  c #716D6E",
"_  c #95332C",
"`  c #9C342D",
"'  c #9B3A32",
"]  c #8D3733",
"[  c #A83D37",
"{  c #B23F3B",
"}  c #A0332C",
"|  c #88730C",
" . c #8D463B",
".. c #AD423C",
"X. c #A7433B",
"o. c #B34236",
"O. c #B3423D",
"+. c #B9453E",
"@. c #877626",
"#. c #857935",
"$. c #833D44",
"%. c #B53F42",
"&. c #864649",
"*. c #9A4645",
"=. c #8F5553",
"-. c #AC4442",
";. c #A54646",
":. c #B34240",
">. c #BB4942",
",. c #B85D54",
"<. c #B05550",
"1. c #9A7654",
"2. c #8B6D51",
"3. c #AE715C",
"4. c #985B63",
"5. c #8B7769",
"6. c #957966",
"7. c #906D6D",
"8. c #B86768",
"9. c #A77569",
"0. c #C7554B",
"q. c #C65B54",
"w. c #C9574E",
"e. c #D6655B",
"r. c #D9675D",
"t. c #D4695D",
"y. c #D8685C",
"u. c #D56357",
"i. c #CC655A",
"p. c #C96965",
"a. c #D26A63",
"s. c #D76763",
"d. c #D15D60",
"f. c #668E78",
"g. c #948D2C",
"h. c #AA962B",
"j. c #B3A835",
"k. c #9D901E",
"l. c #D5B61C",
"z. c #D5B925",
"x. c #CBB42B",
"c. c #A68552",
"v. c #BAAE46",
"b. c #998779",
"n. c #AB8669",
"m. c #BA8C6C",
"M. c #A98975",
"N. c #B68D75",
"B. c #B79279",
"V. c #B29375",
"C. c #A7A677",
"Z. c #C29679",
"A. c #C28F6D",
"S. c #C8A27E",
"D. c #8FC07E",
"F. c #DAC127",
"G. c #345F8B",
"H. c #3C6085",
"J. c #3A71A9",
"K. c #466688",
"L. c #476C94",
"P. c #577698",
"I. c #55738E",
"U. c #68758D",
"Y. c #567DA8",
"T. c #487CAF",
"R. c #957B81",
"E. c #A77E86",
"W. c #688495",
"Q. c #5A81A9",
"!. c #5B8CBC",
"~. c #5887B7",
"^. c #588DB6",
"/. c #6586AB",
"(. c #658AB5",
"). c #6592B9",
"_. c #778FAC",
"`. c #6D9C88",
"'. c #558DC5",
"]. c #5C8DC3",
"[. c #568DCC",
"{. c #4C92CD",
"}. c #5492CD",
"|. c #5B94CC",
" X c #5A95C7",
".X c #4D8FD3",
"XX c #518FD2",
"oX c #4E92D3",
"OX c #4D94DB",
"+X c #5295D5",
"@X c #5A96D2",
"#X c #5499D5",
"$X c #5999D6",
"%X c #5396D9",
"&X c #5699DA",
"*X c #5A9BD9",
"=X c #4F8FCE",
"-X c #6495C8",
";X c #639CD5",
":X c #618FC5",
">X c #77A5D2",
",X c #9B9794",
"<X c #8F8B8E",
"1X c #A38B87",
"2X c #AE968C",
"3X c #BCA999",
"4X c #AFA496",
"5X c #9198AD",
"6X c #ABAAAA",
"7X c #B6A8A8",
"8X c #AFB2B6",
"9X c #94A1A7",
"0X c #CB9294",
"qX c #CBA688",
"wX c #D5AA8A",
"eX c #CBB39B",
"rX c #DCBB9C",
"tX c #D9B696",
"yX c #D0AD93",
"uX c #E2BA97",
"iX c #E3BB9A",
"pX c #E3B799",
"aX c #DCBDA3",
"sX c #D4BAA4",
"dX c #C9BAB9",
"fX c #C7B0AB",
"gX c #E3BBA2",
"hX c #DDC19F",
"jX c #D4C4B0",
"kX c #E8D0B6",
"lX c #E2C09D",
"zX c #B8B8CA",
"xX c #B5BCD3",
"cX c #C2BBCC",
"vX c #D3D4CC",
"bX c #DEDDD9",
"nX c #DADAD9",
"mX c #CCCBCF",
"MX c #E5DCD8",
"NX c #E5D6C6",
"BX c #DEE0DB",
"VX c #E4E1DD",
"CX c #DCDCE2",
"ZX c #E1DDE4",
"AX c #FCFFFB",
"SX c #E7E4E6",
"DX c #DDE7E9",
"FX c #9BC295",
/* pixels */
"                                #X#X#X#X#X#X#X#X#X#X#X#X#X#X#X#X#X#X#XoX#X#X#X#X&X&X&X%X%XOX%X%X%X@X                            ",
"                        $X$X#X#X#X#X#X#X#X#X#X#X#X#X#X#X+X#X#X#X#X#X#X#X#X#X#X#X&X&X&X&X%X%X.X+X+X&X%X%X#X#X                    ",
"                      $X$X@X$X#X#X#X#X#X#X#X#X#X#X#X#X#X@X%X#X%X#X&X#X#X%X#X%X#X%X&X&X%X%X%X+X+X%XoX%X#X%X#X%X                  ",
"                  *X*X*X&X&X$X#X#X#X#X#X#X#X#X#X#X#X#X#X@X#X&X&X%X%X%X#X#X#X#XOX%X%X%X%X%X%X%X%X%X%X&X%X%X#XoX#X@X              ",
"              ;X;X&X&X&X&X&X&X@X#X#X#X#X#X#X&X#X#X#X@X#X#X%X&X&X%X&X%XoX#X%X#X%X%XoX%X%X%X%X+XOX%XoX%XoX%XoX#X X/.I.            ",
"            ;X;X*X*X&X&X&X&X&X&X#X#X#X#X#X&X#X#X%X#X%X%XoX+XoXoX&X%X#X#X%X#XoX#X+X+XoX%X%X%X.X%XoX%XOX%XOX}._.^ 6.eXC.          ",
"          >X;X*X&X*X&X&X&X&X&X&X#X#X#XOX#X#X$X#X%X&X%X#X#X#X#X#X#X#X#X%XoX#X%XoX+X%X&X.X%XOXOX+X%X+XoX{.}./.1Xb.rX1.sXK.        ",
"      >X;X;X@X$X&X*X&X&X&X&X&X&X#X#X#X^.W.^  X#X%X&X@XOX%X#XOX#X%X#X#X#XoXoXoX#X%X+X+XOX%X.XoX%XoXOXoX}.P.9Xc.hX1.aX<X/.+X      ",
"      ;X*X*X$X#X*X*X%X%X&X%X&X&X#X}.#XW.@.k.b Q.#X#X#X#X}.{.#X#X#X%X%X#XoXoXoX{.#X#X#X%X%XoXoXoX#XoX'.I.3XQ hXc.tXn.dXQ.&X%X    ",
"    ;X*X*X$X$X#X*X&X@X%X%X%X#X&X#X#X!.b k.l.k.f.W. X#X^.^ ^  X#X#XoX#XOXoX+X#XoXoXoXoXOX%XoXoX%XoX}.U.4XS.yXeXtX2.hX,X!.+X%X    ",
"    *X$X*X$X$X#X&X@X@X@X#X#X&X&X#X#XW.z j.k.g.g.v ^ _.W v @.^ !.$X#XoXoX%XoX+XoXoXoXoX{.+X+X@X{.{.^.,XhX2.tX1.B.hXeX! |.#X#X    ",
"  *X$X$X#X$X$X#X&X@X~.Y.). X X}.#X).W #.C.D.f.b j.z #.| z.l.v R P T H.Y.-X X}.}.oXoX+X}.Q.~. X{.).^ hXwXtXqXtXn.tX2XW.oX$X#X*X  ",
"  @X$X$X$X#X#X$X#X}.J.G A Z R W.(.W.v z D.D.h j g.k.k z.z.l.h.#.< , 0 B P Y !.}.#XoX+XQ.8XeXI.!.P.fXiXiXuX1.qXiXB.,X).#X*X$X*X  ",
"*X*X$X#X#X%X#X#X X@X@XP.A B v z z v | j.b h j j v.z h.x.x.x.| u k c , X 7 m Z T. XoXoX].U.jXsX^ W aXiXuXuXS.rXrXZ.) -X*X$X;X*X*X",
"$X$X$X|.;X!.L.G.L.L.~./.I.r #.F.z.j.z x.v.g.h.x.h.@.l l l z @.c.@.1.c - + + 8 I H.].OXoX/.,XhXQ 2XrXiXiXlXuXuXuXB.I.$X$X*X*X*X*X",
"$X;X-XY A Z P Z M Z Z V I j @.x.l.x.j.b g.v k k , , > < , , u k c v 2.. o o + 7 M U |.}.!.! hXhX2.lXuXrXuXuXrXqXb.).*X*X*X;X*X*X",
"$XT.H N w N I Z S S D C 5.@.l | | k , < . 0 e 0 w w 4 3 7 7 0 3 y @ q @ + % + + w N U :X{.K.rXrXtXtXuXiX9.wXuXZ.E ).|.*X*X*X*X;X",
"#X{.:XQ.U 8 9 F S S S V c k.x.@.u q # 2 3 C m C V V B B B B C C B 3 o @ + % + o 0 V Z Y }.P.rXrXuXuXuXwXqXpXwXA.E _.P. X;X*X*X*X",
"}.#X#X#X-X-XI.9 N S S S t v j.x 7 w m 7 M V S C e w w 7 2 3 3 3 3 0 o @ % + + 0 7 m S A L.).sXgXuXuXrXm.pXwXA.B.<XxXxXP.;X*X&X*X",
"#X#X#X#X*X-X-XY.P S P S I x h r V C C F V w S 0 & & % @ $ @ % % % % % % $ $ @ @ r V S S S W.b.tXtXyXc.rXqXA.A.B.1XcXzX>X|.&X$X#X",
"#X+X%X@X).K.D S S S S S S S V S S V B m V 4 e 2 + + + $ $ @ + + O @ + $ $ $ $ @ # r V V S S ) 6.Z.A.A.S.A.A.n.9.<X5X<XY.@X#X#X#X",
"+X#X#X@XT S S S S S P M V V S F S S 4 B B 2 # o O o X % # + o o O % $ @ $ % # O # 0 m r C C ( 1Xn.m.A.N.N.M.E.cXzXzXxXL. X#X+X+X",
"#X}.-XU A S S Z S P S M M S S F C 7 & m B 2 & + % % % % % X + > > . X O 0 % O + & + # 0 r C U.6XE M.V.5.7X7XR.xXxXxX5X=X+X}.+X+X",
"#X@XL.Z I V V P S V S F S B 0 w C 3 $ 0 B & o + o % % X X X E b.% % t / p O . O + % % # 3 r a nX<XR ) zXzXzX! xXzXzXK.}.+X+XoXoX",
"}.-XZ S C e w 4 m S S F F 0 # 7 r 2 # & r 0 & % o O q X > b.3X@ % % % 1X. p M.. % % % % % % r R <XCXZXmXzXcX! 6XzX<X! XXOXOXXX.X",
"|.L.S e 4 2 1 2 V S V V m 3 # q r ; O . R B $ & O X / u b.eX$ $ AX> + > 5.2X2X- @ % % % % % % r m 8XCXCXnXzX( 9XfX$.&.Y.%X.X%X.X",
" XU m 4 * 8 ^ S F w m m e 3 ; 1Xn.R ; O % E t X . - 6.B.rXiXsX) AXAX5.> c sX2.p X % + O % % + $ r r ~ E.7XfXi &.$.%.%.! [..XXXXX",
").U 1 n Y.).Y V 3 3 3 0 e 3 ; V.yXyXb.# % # < R ; - 6.wXuXlXhX3X% AX$ bXQ gXyX1X- ; @ @ % % @ @ # r J p.s.d.r.w.:.>.-.E Y.XXXX.X",
"|.H.5 !.|.Y.Z w 3 # y % 0 y @ b.N.M.3X% > AXfXjXsXtXrXiXiXpXlXkX% % y kXgXgXpXm.u E b.- % & % % o O ; 8.s.r.r.r.o.{ o...! ].[.XX",
"}.~.T.}.|.U V 3 $ # % % ; e ; x N.sX+ % AXAX; jXaXrXaXiXiXgXrXgXyX% % lXgXiXpXA.u c.E E % & % % # # O &.s.s.r.r.o.o.o.o.$.Y.~.[.",
"#X#X&X%X:Xn C 3 % % % $ 3 0 3 = 3X7.> jX$ $ @ NXrXgXiXpXiXiXuXuXlXuXiXuXuXiXpXm.3.2.6.t % & % % & o O g p.a.r.e.+.o.o.o.%.J F G ",
"OXOX+X+X:XG e $ @ $ 0 2 $ @ % ; > eX5.vX3X$ $ gXpXiXn.wXiXiXuXuXlXuXiXuXuXiXiXN.1.V.E X % O # # & o & : p.e.r.u.0.o.{ %.[ *.r S ",
"%XOX+X+X@XY.N 1 * 1 I 2 + + + o . x jXaXlXqXrXiXuXuXpXpXlXiXlXuXuXuXuXuXuXuXiX2.5.> = O # @ @ # $ % # - 8.a.y.r.e.+.{ O.O.;.i B ",
"%X%X+XOXXX].U 1 1 I.G y $ 2 7 2 . - 2XpXgXiXiXuXuXpXpXpXpXwXwXuXuXuXuXuXlXlXtXp = O O % # % $ & % % & = 3.a.y.r.e.O.o.%.O.O.$.6 ",
".X%X%X%X%X%X-Xn 5 ^.K.w 2 1 ^ L.5 2 1XtXiXpXuXuXuXiXpXu c 3. .iXuXuXuXuXuXlX4X- + % % $ % & $ @ + O @ O =.t.y.y.r.u.{ { O.{ >.d ",
".X%X%X.X%XXXXX:Xn !.!.A 9 9 L.'.~.M B Q gXiXiXiXpXuXpXZ.2.9.2.gXuXuXtXuXlXtXp X o o @ + % + @ # @ + + O i p.y.y.y.r.0.{ { O.{ ;.",
"%X%X.X%XoXoX+XXXJ.+X=X!.L.H n [.~.A 3 @ b.aXiXiXiXuXuXpXiXZ.iXiXuXuXiXiXwXc - ; . o + @ % % # @ O + + + : p.y.y.r.r.s.o.o.O.{ :.",
"%XOX.XOXoX+X+XXX.X.X.X=X=X~.G.J.P.P # $ o 5.jXgXiXiXiXiXgXgXiXiXuXuXiXwX2.V.; # % # O O O ; O = = = = = : p.u.y.r.r.r.u.o.O.O.:.",
"+XoX+X+XoX%XoXoX.X{.oXoXoX{..X'.T P $ % o o O E 3XsXaXgXpXuXuXlXiXuXm.c.A.N.. o O q g  .<.,.p.p.p.p.,.<.d ,.y.y.r.y.r.r.O.O.:.O.",
"oX%XoX+X%XoXoXoXoX.X{..XoXoXoX'.A M % % o o o & # ; x b.eXiXlXiXm.1.m.Z.B.V./ 8XMX0X8.s.e.e.y.r.y.y.s.a.i.-.t.y.r.r.r.r.+.O.:.O.",
"%XoX%XoX#XoX%XoXoX.X{.oXoXoXoX'.n m 3 o # % % o % @ + X c n.1.9.2X9.b.5.7.4XCXMX7.8.r.r.r.e.y.s.y.y.u.y.a.' e.r.r.y.r.r.O.O.:.O.",
"oX+XoXoXoXoXoX#X{..XoX{.oXoXoX'.A w 0 o + % + % + % + X > M.5./ / 7X6X<XmXMXMX9.p.e.y.r.r.r.y.r.y.i.t.u.i.' a.e.y.r.s.r.o.:.:.O.",
"%X%XoX%X%XoXOX%XoX.XoXoX.X.X.X!.A 8 m 7 $ + % % % % % @ W / 8X8X8X9X<XCXMXMX=.i.e.y.r.e.y.y.e.>.o.o.X.X. .,.,.e.r.r.r.r.O.:.+.O.",
"oXoX%XoXoXoXoX{.oX.X.X.XoXoXoX!.Z 8 ^ m 2 $ + + % % % 0 vXvXmX8XW.mXDXbXNX2.i.y.e.r.r.r.e.e.>.{ X.X.' q.s.p.<.,.a.e.e.r.o.O.O.:.",
"oX%X%XOX%XoXoXoXoXoX.X.XXXXX{.].A n U.N w & & & + + + < vXmX6X6XMXVXMXMX6.3.r.y.e.y.r.r.u.>...{ ` X.,.w.q.,.[ _ ..q.e.e.O.O.:.O.",
"oX+XoXoXoXoXoXoXoXoXoX.X.XXX.X[.U P P U.Z w # & + + % 0 mX,XjXbXBXBXMXdX=.0.w.e.r.r.r.u.+.o...} X.X.+.o.{ -._ X.' ` >.0.O.O.:.O.",
"#XoXoX#X#XoXoXoXoXoXoX.X=X+X{..X^.A n I.U.P w o + + ) 4X6XBXbXbXbXbXdXE ;.O.+.r.r.u.0.o.o.o.[ [ ..O.O.O.o.:.O.:...-.[ ..:.O.O.:.",
"$XoXoX%XoXoXoX+XoX.X{.oX{.oXoX.X.X~.G 8 P ) <X,X/ 6X<XBXBXBXnXMXvXdX4.=.:.o.{ +.o.o.{ o.O.O.O.:.+.O.O.O.O.{ O.O.O.O.O.{ +.:.O.O.",
"$X$XoX#XoXoXoXoXoXoXoXoX+X}.{..X[.[.Y.I K ZX7XE E a cXMXZXZXCXmXfX4.p.q.{ { o.o.o.o.o.o.O.O.O.:.O.O.O.:.O.O.O.O.O.O.O.o.O.O.%.:.",
"$X*XoXoX#XoXoXoXoXoXoXoX.X.X}.+XXX[.(.U.SX7.7.0X4.L L MXCXnXcXfX=.a.s.q.O.:.:.O.:.:.:...O.O.O.O.:.O.O.O.O...O.O.o...O.{ { %.:.:.",
"  $X%XoXoXoXoX+XoXoXoXoX.X.XoXoX=X!.U.ZX~ &.0X] s i f mXcXdX7X<.s.s.d.q.O.O.:.:.O.:.:.O.O.o.:.O.O...O.-...o...X.X.;.;.;.-.$.*.*.",
"  $X$X%X#XoX+XoX%XoXOXoX.XoX.X{.[.K.CXMXi &.s s s $.7.xXcXR.8.s.e.r.e.e.>.O.{ O.O.O.O.o.o.o.O.O.O.o.` _ _ _ '  .a ; - = = = = . ",
"    $XoXoXoX%XoXoXoXoX.X.X.X{.{.].U.MX7Xf L s s ] 8.&.zX=.8.s.r.e.s.w.O.w.+.{ :.....O.o.o.o.O...o.O.......;.*.f ; # ; # ; # #   ",
"    $X$XoXoXoXoXoXoX.X.X{.oX.X!.I.4.2X7.R K =.*.p.s.p.<.p.s.r.r.r.r.u.{ o.O.{ { ` [ [ ......o.o.O.:...;. .i : X & # & $ & # $   ",
"    $X$XoXoXoXoX+X=X.XoX.X=X!.( E.d.7.~ ) 7.4.a.s.s.d.p.s.e.r.r.r.r.r.0.o.{ O.O.X.X.] _ ' ;...-.-.X.f > = % @ + $ # $ O $ O     ",
"      *X$X%XoXoXoXoX.X.X.X.XU.8.p.4.! ~ ~ 8.s.d.>.:.o.o.:.O.>.>.w.u.r.u.0.o.-.O...X.' ] ' ' ` ` _ &.: @ @ y + % $ @ # @ $ $     ",
"        @X$XoXoXoXoXoX{.[.Y.p.s.4.! U.&.p.<.O.>.O.O.O.O.{ o.{ { o.O.O.0.w.>.O.O.[ ` [ ..-.%.{ :. .i @ + & % % % # $ % % %       ",
"        &X$X$XoXoXoXoX{.].~ s.p.~ ! ~ ;.{ %.:.{ o.O.O.O.:.O.O.O.O.O.o.O.o.O...>.{ o.....O.{ %.;.d ; $ @ $ # + # % % % % %       ",
"          $X$X$XoXoX.X.X=XL { *.K K J -.{ { %.O.O.O.O.:.O.:.:.O.O.O.O.O.O.O.O.O.:.{ { O.O...:. .: o $ # @ # % + % % % %         ",
"            oX$XoX{.{..X[.L %.;.J F K ;.{ { { o.o.O.O.:.O.O.O.O.+.O.O.:.O.O.O.:.{ +.{ %...:.&.- o o @ $ & @ % # % % %           ",
"                oXoX+X.X[.~ ;.-.f K R d -.:.O...{ O.O.:.O.+.:.:.O.O.:.O.O.O.:.O.O.O.{ -.*.&.= o o % % % % + # + # @             ",
"                  .X.X.X.XY.&.%.$.J S a ;...o...{ :.{ O.:.O.O.O.:.:.O.O.:.+.:.O.O.%.:.;.i : O & + + o % % + % % $ $             ",
"                    .X'.OX[.K -.;.f C K $.-.:.{ { O.:.:.:.O.O.O.O.o.{ %.O.O.:.+.%.-. .E ) r & o + % @ % + o o +                 ",
"                        '.&XY.&.-.%.J D a X.o...{ { O.O.O.:.O.{ { +.>.O.O.O.-.O.-.;.E 6X6X8X8X<XW r $ o o + o                   "
};
